$MeshFormat
4.1 0 8
$EndMeshFormat
$PhysicalNames
3
2 2 "BottomFace"
2 3 "TopFace"
3 1 "CubeVolume"
$EndPhysicalNames
$Entities
8 12 6 1
1 0 0 0 0 
2 10 0 0 0 
3 10 10 0 0 
4 0 10 0 0 
5 0 0 10 0 
6 10 0 10 0 
7 10 10 10 0 
8 0 10 10 0 
1 0 0 0 10 0 0 0 2 1 -2 
2 10 0 0 10 10 0 0 2 2 -3 
3 0 10 0 10 10 0 0 2 3 -4 
4 0 0 0 0 10 0 0 2 4 -1 
5 0 0 0 0 0 10 0 2 1 -5 
6 10 0 0 10 0 10 0 2 2 -6 
7 10 10 0 10 10 10 0 2 3 -7 
8 0 10 0 0 10 10 0 2 4 -8 
9 0 0 10 10 0 10 0 2 5 -6 
10 10 0 10 10 10 10 0 2 6 -7 
11 0 10 10 10 10 10 0 2 7 -8 
12 0 0 10 0 10 10 0 2 8 -5 
1 0 0 0 10 10 0 1 2 4 1 2 3 4 
2 0 0 0 10 0 10 0 4 1 6 -9 -5 
3 10 0 0 10 10 10 0 4 2 7 -10 -6 
4 0 10 0 10 10 10 0 4 3 8 -11 -7 
5 0 0 0 0 10 10 0 4 4 5 -12 -8 
6 0 0 10 10 10 10 1 3 4 9 10 11 12 
1 0 0 0 10 10 10 1 1 6 1 2 3 4 5 6 
$EndEntities
$Nodes
27 355 1 355
0 1 0 1
1
0 0 0
0 2 0 1
2
10 0 0
0 3 0 1
3
10 10 0
0 4 0 1
4
0 10 0
0 5 0 1
5
0 0 10
0 6 0 1
6
10 0 10
0 7 0 1
7
10 10 10
0 8 0 1
8
0 10 10
1 1 0 5
9
10
11
12
13
1.666666666664462 0 0
3.333333333326264 0 0
4.999999999992399 0 0
6.666666666661599 0 0
8.333333333330801 0 0
1 2 0 5
14
15
16
17
18
10 1.666666666664462 0
10 3.333333333326264 0
10 4.999999999992399 0
10 6.666666666661599 0
10 8.333333333330801 0
1 3 0 5
19
20
21
22
23
8.333333333333332 10 0
6.666666666666666 10 0
5 10 0
3.333333333333332 10 0
1.666666666666666 10 0
1 4 0 5
24
25
26
27
28
0 8.333333333333332 0
0 6.666666666666666 0
0 5 0
0 3.333333333333332 0
0 1.666666666666666 0
1 5 0 5
29
30
31
32
33
0 0 1.666666666664462
0 0 3.333333333326264
0 0 4.999999999992399
0 0 6.666666666661599
0 0 8.333333333330801
1 6 0 5
34
35
36
37
38
10 0 1.666666666664462
10 0 3.333333333326264
10 0 4.999999999992399
10 0 6.666666666661599
10 0 8.333333333330801
1 7 0 5
39
40
41
42
43
10 10 1.666666666664462
10 10 3.333333333326264
10 10 4.999999999992399
10 10 6.666666666661599
10 10 8.333333333330801
1 8 0 5
44
45
46
47
48
0 10 1.666666666664462
0 10 3.333333333326264
0 10 4.999999999992399
0 10 6.666666666661599
0 10 8.333333333330801
1 9 0 5
49
50
51
52
53
1.666666666664462 0 10
3.333333333326264 0 10
4.999999999992399 0 10
6.666666666661599 0 10
8.333333333330801 0 10
1 10 0 5
54
55
56
57
58
10 1.666666666664462 10
10 3.333333333326264 10
10 4.999999999992399 10
10 6.666666666661599 10
10 8.333333333330801 10
1 11 0 5
59
60
61
62
63
8.333333333333332 10 10
6.666666666666666 10 10
5 10 10
3.333333333333332 10 10
1.666666666666666 10 10
1 12 0 5
64
65
66
67
68
0 8.333333333333332 10
0 6.666666666666666 10
0 5 10
0 3.333333333333332 10
0 1.666666666666666 10
2 1 0 34
69
70
71
72
73
74
75
76
77
78
79
80
81
82
83
84
85
86
87
88
89
90
91
92
93
94
95
96
97
98
99
100
101
102
8.556624327025311 5.833333333325621 0
1.508426476087402 5.815109568337916 0
4.225681537394819 1.587006338148139 0
5.977876091177411 8.506173125071467 0
7.34695730156957 1.50949541239847 0
2.477062749976873 8.611620212025587 0
1.513080901436889 2.623742252844186 0
8.564488816891735 4.180288362680171 0
7.1145594023636 5.002270282660092 0
6.970890241192377 6.926979690159545 0
5.669872981077482 5.833333333320191 0
5.670091439132968 4.167045047098794 0
4.255962858374241 5.000063063391229 0
4.226497308101723 6.666666666650073 0
4.256622346820251 3.363974741127669 0
2.725814206175203 4.195769457510456 0
5.740989102050166 2.512884973425312 0
8.589443523507395 7.512248266187697 0
4.209213154056054 8.31801208463059 0
7.173482888037258 3.325619042397526 0
7.514520565938922 8.616007552505527 0
1.369493419812581 7.52883104482264 0
8.632618019777581 2.551385704695633 0
2.510714663166548 1.374375424148741 0
1.149464316739899 4.193590922405178 0
3.132803741746528 5.781859370804888 0
3.046382730998742 2.628973642755838 0
2.82058280829686 7.120349824545281 0
5.833333333327 1.116454968454773 0
5.478577481360838 7.220425997361202 0
8.779915320715048 8.779915320714371 0
8.77991532071588 1.220084679282852 0
1.220084679281246 1.220084679281836 0
1.220084679281461 8.779915320718539 0
2 2 0 34
103
104
105
106
107
108
109
110
111
112
113
114
115
116
117
118
119
120
121
122
123
124
125
126
127
128
129
130
131
132
133
134
135
136
5.815109568332544 0 8.491573523911626
5.819711637304651 0 1.435511183109322
1.587006338149086 0 5.774318462597114
8.317362844195015 0 5.808159061342911
1.509495412396423 0 2.653042698424125
8.570246023045089 0 2.444948570944673
2.623742252841307 0 8.486919098562955
4.17801808001011 0 1.434200434797087
4.99962161954474 0 2.883911391273128
6.915391893519979 0 3.022135546983816
5.833333333319613 0 4.330127018921432
4.166603603246005 0 4.329653693138832
4.9999894894153 0 5.743994663669971
6.666666666649289 0 5.773502691896985
3.363888904823331 0 5.743328095563377
4.195757838684102 0 7.274179085691454
2.512797093399155 0 4.258960160387618
8.591274847837994 0 7.52079658063238
8.502156208548737 0 4.017695296129918
3.324710997453226 0 2.825992851967485
7.526408977654519 0 8.630251738591905
7.48679910141254 0 1.365896778738805
1.374375424149292 0 7.489285336827617
2.551007332360046 0 1.367163526851128
4.193588598635324 0 8.850534341633207
5.781842332242891 0 6.867186421034811
2.628954151729424 0 6.953606015848504
7.116444206152041 0 7.181911669568434
1.116454968456066 0 4.166666666659331
7.219579789864435 0 4.521733294922882
1.220084679278875 0 1.220084679278875
8.779915320715958 0 8.779915320715958
8.779915320720661 0 1.22008467927807
1.22008467927807 0 8.779915320720661
2 3 0 34
137
138
139
140
141
142
143
144
145
146
147
148
149
150
151
152
153
154
155
156
157
158
159
160
161
162
163
164
165
166
167
168
169
170
10 5.815109568332544 8.491573523911626
10 5.819711637304651 1.435511183109322
10 1.587006338149086 5.774318462597114
10 8.317362844195015 5.808159061342911
10 1.509495412396423 2.653042698424125
10 8.570246023045089 2.444948570944673
10 2.623742252841307 8.486919098562955
10 4.17801808001011 1.434200434797087
10 4.99962161954474 2.883911391273128
10 6.915391893519979 3.022135546983816
10 5.833333333319613 4.330127018921432
10 4.166603603246005 4.329653693138832
10 4.9999894894153 5.743994663669971
10 6.666666666649289 5.773502691896985
10 3.363888904823331 5.743328095563377
10 4.195757838684102 7.274179085691454
10 2.512797093399155 4.258960160387618
10 8.591274847837994 7.52079658063238
10 8.502156208548737 4.017695296129918
10 3.324710997453226 2.825992851967485
10 7.526408977654519 8.630251738591905
10 7.48679910141254 1.365896778738805
10 1.374375424149292 7.489285336827617
10 2.551007332360046 1.367163526851128
10 4.193588598635324 8.850534341633207
10 5.781842332242891 6.867186421034811
10 2.628954151729424 6.953606015848504
10 7.116444206152041 7.181911669568434
10 1.116454968456066 4.166666666659331
10 7.219579789864435 4.521733294922882
10 1.220084679278875 1.220084679278875
10 8.779915320715958 8.779915320715958
10 8.779915320720661 1.22008467927807
10 1.22008467927807 8.779915320720661
2 4 0 34
171
172
173
174
175
176
177
178
179
180
181
182
183
184
185
186
187
188
189
190
191
192
193
194
195
196
197
198
199
200
201
202
203
204
8.564488816890105 10 5.819711637305915
1.491348841061509 10 5.823730257256483
4.22568153739596 10 1.587006338152189
4.202570005567107 10 8.325542930171897
7.346957301571202 10 1.509495412399195
1.513080901434761 10 2.623742252842947
7.555051429052639 10 8.570246023045312
8.565799565201509 10 4.178018080011507
7.116088608725144 10 4.999621619548373
6.977864453014452 10 6.915391893522096
5.669872981077693 10 5.833333333326096
5.670346306857194 10 4.166603603252205
4.256005336327465 10 4.999989489424388
4.226497308103546 10 6.666666666658659
4.256671904430603 10 3.363888904830283
2.741303459122697 10 4.187894882465965
5.74103983960671 10 2.512797093403383
1.39261386474715 10 7.553478405349454
5.984092881685127 10 8.503519556212412
7.174007148029483 10 3.324710997456398
8.634103221260233 10 7.486799101412717
2.494299062448196 10 8.636886363799913
2.510714663167826 10 1.374375424150057
8.632836473147226 10 2.55100733236143
1.149146640323793 10 4.193740145176812
3.131169219375679 10 5.784008611315098
3.049490493110369 10 2.627381560488288
2.823083050217197 10 7.13171887242525
5.833333333333333 10 1.116454968459234
5.4789183733775 10 7.220076636683405
1.220084679283777 10 8.779915320715544
8.779915320718164 10 1.220084679281245
1.220084679279091 10 1.220084679278501
8.77991532071897 10 8.77991532071829
2 5 0 34
205
206
207
208
209
210
211
212
213
214
215
216
217
218
219
220
221
222
223
224
225
226
227
228
229
230
231
232
233
234
235
236
237
238
0 8.564488816890105 5.819711637305915
0 1.491348841061509 5.823730257256483
0 4.22568153739596 1.587006338152189
0 4.202570005567107 8.325542930171897
0 7.346957301571202 1.509495412399195
0 1.513080901434761 2.623742252842947
0 7.555051429052639 8.570246023045312
0 8.565799565201509 4.178018080011507
0 7.116088608725144 4.999621619548373
0 6.977864453014452 6.915391893522096
0 5.669872981077693 5.833333333326096
0 5.670346306857194 4.166603603252205
0 4.256005336327465 4.999989489424388
0 4.226497308103546 6.666666666658659
0 4.256671904430603 3.363888904830283
0 2.741303459122697 4.187894882465965
0 5.74103983960671 2.512797093403383
0 1.39261386474715 7.553478405349454
0 5.984092881685127 8.503519556212412
0 7.174007148029483 3.324710997456398
0 8.634103221260233 7.486799101412717
0 2.494299062448196 8.636886363799913
0 2.510714663167826 1.374375424150057
0 8.632836473147226 2.55100733236143
0 1.149146640323793 4.193740145176812
0 3.131169219375679 5.784008611315098
0 3.049490493110369 2.627381560488288
0 2.823083050217197 7.13171887242525
0 5.833333333333333 1.116454968459234
0 5.4789183733775 7.220076636683405
0 1.220084679283777 8.779915320715544
0 8.779915320718164 1.220084679281245
0 1.220084679279091 1.220084679278501
0 8.77991532071897 8.77991532071829
2 6 0 34
239
240
241
242
243
244
245
246
247
248
249
250
251
252
253
254
255
256
257
258
259
260
261
262
263
264
265
266
267
268
269
270
271
272
8.564488816890279 5.819711637306035 10
4.201757502356359 8.324853059846067 10
1.508426476087782 4.18489043165807 10
5.977876091174492 1.493826874924151 10
8.588713258243057 2.507062282130309 10
2.477062749974098 1.388379787970524 10
7.555051429052671 8.570246023045293 10
1.513080901435435 7.376257747150941 10
8.563283230540295 4.165573431012161 10
7.115669219615847 4.99754751138122 10
6.977804540284655 6.915095592355286 10
5.669872981078001 5.833333333325695 10
5.642365034461428 4.214601836801124 10
4.251341790928344 5.00798919501521 10
4.226497308105901 3.33333333332521 10
4.223917045848236 6.574396346755842 10
2.723093625383863 5.800325538556553 10
6.972654484815823 3.080694882785022 10
4.20921315405529 1.681987915360614 10
5.983947479028392 8.503355194296931 10
7.51464365859869 1.38720496192948 10
8.634096088792425 7.486763827464298 10
1.369493419813344 2.471168955173845 10
2.544044659612522 8.609586970716137 10
3.13133541210237 4.218970080080161 10
1.148920200581416 5.805628076806446 10
3.041178746927283 7.337083932605108 10
2.820338086689797 2.879788417261404 10
5.478731051384013 7.215212993757832 10
5.502404735807914 2.790063509458656 10
1.220084679278501 1.220084679279091 10
1.220084679281462 8.779915320718537 10
8.779915320720661 1.220084679278069 10
8.779915320718969 8.779915320718292 10
3 1 0 83
273
274
275
276
277
278
279
280
281
282
283
284
285
286
287
288
289
290
291
292
293
294
295
296
297
298
299
300
301
302
303
304
305
306
307
308
309
310
311
312
313
314
315
316
317
318
319
320
321
322
323
324
325
326
327
328
329
330
331
332
333
334
335
336
337
338
339
340
341
342
343
344
345
346
347
348
349
350
351
352
353
354
355
4.999931263936056 5.000050929896713 5.000753270981093
3.149383999907236 3.173273702698085 3.145756246100671
3.640747950341725 6.968456378995915 6.977634903351685
3.044582225997758 3.021520760294899 6.377712380185093
3.630274777072272 6.975410383157544 3.033016378338711
6.975633211410218 3.03280305811203 6.370559543884726
6.857645300728795 3.163492522938505 3.206091422311856
6.794870260191704 6.857375723682821 3.163840046346771
7.074961808613163 6.552570559079249 6.585962514565036
2.480607493236669 5.701194642858195 5.006151775451224
5.008989634633632 2.439188016081953 4.832238231636958
5.182274797835127 4.973721993207956 2.417908531266079
5.157631005621131 7.553537169223176 5.002309646394029
5.008515524732209 4.289788201123603 7.490662307680935
7.645449573097731 5.041325455289524 4.668566512364552
2.737421649848164 4.92078442215546 7.767321655222462
2.30803062373131 5.183692584040617 2.162816613305814
5.599476688736872 7.797859159842346 7.798882409691174
2.945451626139297 7.890114494383409 5.059965626659789
5.058799482514201 2.10467066505935 7.038451852243834
7.856080071475481 7.857381713148 4.902150399615159
5.017210957933244 2.205351546946771 2.178013889551513
7.935774320000464 4.753527594706812 2.065710087359832
7.1591737434703 4.707651414710718 7.806037876761069
2.040195717657288 7.991973774211544 7.996811126173971
7.981633686916211 7.949049966889449 7.970144780260777
2.015880365888661 2.024495901339451 7.990783406275058
5.294550944801474 7.935899813891227 2.035230505210381
7.979535498878109 2.0163268650221 7.988400269568292
7.936171514893768 2.034810674059209 4.706397200109868
8.056767964065783 1.979634114809676 1.943165882066822
1.976467299278901 3.716065914384739 4.754448554615008
8.030206016352196 8.042920791897393 1.951283136672592
2.008172015520657 7.983388858417205 2.016456828214585
1.953951039662511 1.928358960769704 1.948302822394645
1.835682644746582 1.896250167811384 3.942316359284367
3.624948467600858 5.010288585556267 3.588445368518803
3.724370485801322 2.907033749066492 8.183147549996756
5.246032219514364 5.983251311047924 6.626641949411142
6.294262195569242 2.757681551565284 8.193837307263761
6.48331777056616 8.306761395269337 6.142203528287655
8.300697210927364 4.389329548734341 6.324945465878153
1.822165570268691 6.303935964702222 6.740564820625044
1.805254635014853 6.538880863025667 3.420680205991414
4.290122513804348 5.814686889866541 8.295040443043966
3.579301824924213 4.763475752636906 6.14174315033017
3.731902058682023 4.09918189413289 1.633399711400179
6.560718791761338 5.892699361789109 1.61167766054713
6.522121306243375 4.784481887965491 6.091309422455289
3.306694345634281 1.730285129395046 5.066512615512654
5.163220001494214 6.261551204010273 3.701428566262008
6.08066030955232 6.103010508703212 8.233501266024117
1.854607135713577 8.429713491717155 3.749655799318619
3.912462510455892 5.936488525973949 1.603420112019087
1.732114226491863 4.558624079305396 6.322651802603179
5.999573140288692 1.62327557112958 3.569762816259121
4.88943024738313 3.506543448405476 3.400408799207168
6.40399799884262 3.908152953942766 1.627167150215978
6.546228353530113 6.434446601948032 4.88261878567427
8.386165101249567 6.475882800336307 3.892563816146051
3.74729097417141 3.679620198581603 4.750990289093022
6.396529628425281 8.37602150664787 4.014101720534617
1.929617589846564 6.305928694309173 8.500402993682897
1.639456455784144 3.588160083102233 2.379242335228654
8.428770919002439 3.912334968229102 3.547240659782641
6.186570664914727 3.736494219952309 4.723599489554339
2.155779128068215 1.54221818765034 6.339231292147889
3.657818614960066 8.458535394272891 2.157478397948192
8.297872563194002 6.14361870078774 7.890991982728384
8.460208879781698 2.161332520771673 6.341525888688462
4.611600985495653 8.316674023927963 6.465772345131125
3.890397120872628 1.58121937141343 3.397869719958805
6.705607563060458 5.131675326058011 3.220215126098165
6.424894936122046 1.677914539547994 5.456666581282422
4.017106823552989 6.342103832479172 5.424393867617177
1.634960976781598 8.010142858944418 6.261563437931047
4.607656488742132 8.267161090934568 3.557557892451034
3.946062922277354 8.2885374163266 8.081539944139394
8.457751450080121 5.985678961932467 5.805066957462671
3.485547775725589 2.458507580908944 1.591335115639945
8.524182848936311 6.387977129428342 2.16055100650358
8.428807550297012 3.654408783720839 8.34651046175528
1.549790087732139 3.67171392834046 7.789376221949843
$EndNodes
$Elements
3 1409 1 1409
2 1 2 90
1 1 9 101 
2 28 1 101 
3 13 2 100 
4 2 14 100 
5 18 3 99 
6 3 19 99 
7 23 4 102 
8 4 24 102 
9 9 10 92 
10 9 92 101 
11 10 11 71 
12 10 71 92 
13 11 12 97 
14 71 11 97 
15 12 13 73 
16 12 73 97 
17 73 13 100 
18 14 15 91 
19 14 91 100 
20 15 16 76 
21 15 76 91 
22 16 17 69 
23 16 69 76 
24 17 18 86 
25 69 17 86 
26 86 18 99 
27 19 20 89 
28 19 89 99 
29 20 21 72 
30 20 72 89 
31 21 22 87 
32 72 21 87 
33 22 23 74 
34 22 74 87 
35 74 23 102 
36 24 25 90 
37 24 90 102 
38 25 26 70 
39 25 70 90 
40 26 27 93 
41 70 26 93 
42 27 28 75 
43 27 75 93 
44 75 28 101 
45 76 69 77 
46 77 69 78 
47 78 69 86 
48 84 70 93 
49 70 84 94 
50 90 70 96 
51 70 94 96 
52 83 71 85 
53 71 83 95 
54 85 71 97 
55 92 71 95 
56 72 78 89 
57 78 72 98 
58 72 87 98 
59 85 73 88 
60 73 85 97 
61 88 73 91 
62 91 73 100 
63 87 74 96 
64 74 90 96 
65 90 74 102 
66 75 84 93 
67 84 75 95 
68 75 92 95 
69 92 75 101 
70 76 77 88 
71 76 88 91 
72 77 78 79 
73 77 79 80 
74 77 80 88 
75 79 78 98 
76 78 86 89 
77 80 79 81 
78 81 79 82 
79 82 79 98 
80 80 81 83 
81 80 83 85 
82 80 85 88 
83 81 82 94 
84 83 81 84 
85 84 81 94 
86 82 87 96 
87 87 82 98 
88 94 82 96 
89 83 84 95 
90 89 86 99 
2 6 2 90
91 5 49 269 
92 68 5 269 
93 53 6 271 
94 6 54 271 
95 58 7 272 
96 7 59 272 
97 63 8 270 
98 8 64 270 
99 49 50 244 
100 49 244 269 
101 50 51 257 
102 244 50 257 
103 51 52 242 
104 51 242 257 
105 52 53 259 
106 242 52 259 
107 259 53 271 
108 54 55 243 
109 54 243 271 
110 55 56 247 
111 243 55 247 
112 56 57 239 
113 56 239 247 
114 57 58 260 
115 239 57 260 
116 260 58 272 
117 59 60 245 
118 59 245 272 
119 60 61 258 
120 245 60 258 
121 61 62 240 
122 61 240 258 
123 62 63 262 
124 240 62 262 
125 262 63 270 
126 64 65 246 
127 64 246 270 
128 65 66 264 
129 246 65 264 
130 66 67 241 
131 66 241 264 
132 67 68 261 
133 241 67 261 
134 261 68 269 
135 247 239 248 
136 248 239 249 
137 249 239 260 
138 254 240 265 
139 240 254 267 
140 258 240 267 
141 240 262 265 
142 255 241 263 
143 241 255 264 
144 241 261 266 
145 263 241 266 
146 256 242 259 
147 242 256 268 
148 257 242 268 
149 243 247 256 
150 243 256 259 
151 243 259 271 
152 244 257 266 
153 261 244 266 
154 244 261 269 
155 249 245 258 
156 245 249 260 
157 245 260 272 
158 255 246 264 
159 246 255 265 
160 262 246 265 
161 246 262 270 
162 247 248 256 
163 248 249 250 
164 248 250 251 
165 248 251 256 
166 250 249 267 
167 249 258 267 
168 251 250 252 
169 252 250 254 
170 254 250 267 
171 251 252 253 
172 251 253 268 
173 256 251 268 
174 253 252 263 
175 252 254 255 
176 252 255 263 
177 257 253 266 
178 253 257 268 
179 253 263 266 
180 255 254 265 
3 1 4 1229
181 283 292 286 333 
182 286 292 276 333 
183 293 298 281 351 
184 219 304 289 316 
185 286 292 283 338 
186 164 298 293 351 
187 283 276 292 333 
188 278 292 286 338 
189 97 294 104 303 
190 276 318 286 333 
191 273 286 318 333 
192 216 304 219 316 
193 289 304 282 316 
194 216 282 304 316 
195 76 144 295 303 
196 278 283 292 338 
197 219 289 304 336 
198 91 160 144 303 
199 104 303 294 328 
200 178 155 293 305 
201 76 91 144 303 
202 294 303 85 330 
203 171 293 298 313 
204 140 293 164 298 
205 286 321 278 338 
206 276 292 310 339 
207 230 339 276 355 
208 282 304 289 309 
209 230 276 327 355 
210 171 293 140 298 
211 70 233 289 306 
212 343 348 275 350 
213 118 310 292 339 
214 273 321 286 338 
215 118 299 310 339 
216 230 308 304 339 
217 140 164 293 351 
218 292 310 268 312 
219 278 302 287 314 
220 291 343 196 348 
221 242 292 268 312 
222 287 314 302 337 
223 302 314 151 337 
224 230 304 276 339 
225 279 303 294 330 
226 287 302 278 338 
227 293 305 155 332 
228 178 194 155 305 
229 130 292 103 312 
230 276 304 230 327 
231 130 103 301 312 
232 265 317 335 350 
233 257 292 127 310 
234 268 292 257 310 
235 300 305 187 334 
236 73 97 104 303 
237 213 291 282 316 
238 275 348 297 350 
239 198 348 343 350 
240 282 291 213 348 
241 118 129 299 339 
242 153 303 302 337 
243 96 306 289 326 
244 276 322 292 339 
245 281 298 293 313 
246 294 303 279 328 
247 76 295 88 303 
248 156 295 144 303 
249 190 194 178 305 
250 257 268 242 292 
251 130 128 292 346 
252 282 309 289 316 
253 198 196 343 348 
254 257 103 127 292 
255 252 286 310 317 
256 275 335 317 350 
257 278 342 301 346 
258 191 171 154 298 
259 230 232 339 355 
260 287 337 302 338 
261 118 292 322 339 
262 288 310 286 317 
263 298 341 281 351 
264 104 112 303 328 
265 302 303 112 328 
266 275 343 291 348 
267 76 88 91 303 
268 300 305 280 320 
269 160 156 144 303 
270 291 316 213 325 
271 198 297 348 350 
272 109 299 244 310 
273 78 305 300 320 
274 140 293 150 351 
275 98 320 300 326 
276 190 187 305 334 
277 118 127 292 310 
278 140 150 164 351 
279 289 309 304 336 
280 300 320 284 326 
281 295 303 156 337 
282 242 301 103 312 
283 301 342 130 346 
284 141 121 302 303 
285 293 305 280 334 
286 279 303 302 328 
287 140 154 171 298 
288 284 320 300 323 
289 280 305 300 334 
290 284 323 300 326 
291 88 303 295 330 
292 289 306 277 326 
293 175 300 72 305 
294 130 128 103 292 
295 151 314 302 342 
296 265 335 297 350 
297 257 242 103 292 
298 96 70 289 306 
299 164 341 298 351 
300 280 305 293 332 
301 118 109 127 310 
302 109 257 127 310 
303 118 299 109 310 
304 88 85 303 330 
305 291 325 213 348 
306 156 303 153 337 
307 194 142 155 305 
308 118 322 117 339 
309 258 290 189 298 
310 141 302 153 303 
311 276 310 299 339 
312 304 309 274 336 
313 104 124 73 303 
314 177 245 189 298 
315 206 308 230 339 
316 121 112 302 303 
317 83 319 294 330 
318 234 288 335 355 
319 282 213 315 348 
320 148 151 314 337 
321 242 103 292 312 
322 82 326 300 340 
323 259 123 242 301 
324 175 187 300 305 
325 171 298 180 313 
326 252 286 253 310 
327 115 292 283 322 
328 302 303 279 337 
329 98 79 320 326 
330 251 296 286 324 
331 199 72 175 300 
332 72 300 78 305 
333 165 141 121 302 
334 109 244 257 310 
335 94 96 289 326 
336 288 310 263 355 
337 216 282 217 304 
338 297 335 275 350 
339 277 306 289 316 
340 96 306 326 340 
341 242 123 103 301 
342 258 189 245 298 
343 104 112 124 303 
344 277 326 306 340 
345 146 155 305 332 
346 290 317 254 350 
347 286 317 251 324 
348 252 253 263 310 
349 221 219 289 316 
350 234 335 208 355 
351 277 340 325 349 
352 251 286 296 312 
353 254 317 265 350 
354 278 302 314 342 
355 96 326 82 340 
356 148 314 287 337 
357 277 325 291 349 
358 267 290 254 350 
359 215 217 282 327 
360 294 319 284 330 
361 171 191 180 298 
362 207 93 233 289 
363 289 274 309 336 
364 288 315 234 335 
365 267 254 290 317 
366 295 303 279 330 
367 189 290 180 298 
368 216 215 217 282 
369 141 108 121 303 
370 284 319 294 329 
371 234 327 288 355 
372 290 298 249 324 
373 284 329 294 330 
374 153 302 151 337 
375 156 141 153 303 
376 88 85 73 303 
377 279 303 295 337 
378 249 290 258 298 
379 217 304 282 327 
380 180 298 290 313 
381 175 190 187 305 
382 118 129 109 299 
383 253 252 251 286 
384 175 72 89 305 
385 80 319 83 330 
386 266 263 310 355 
387 234 315 288 327 
388 215 282 213 315 
389 300 320 280 323 
390 130 342 116 346 
391 241 335 288 355 
392 84 336 95 352 
393 296 341 239 354 
394 229 105 131 308 
395 183 285 291 349 
396 75 95 336 352 
397 186 325 340 349 
398 250 251 317 324 
399 183 291 285 343 
400 92 126 110 352 
401 71 110 97 294 
402 241 208 335 355 
403 140 164 154 298 
404 82 300 87 340 
405 300 323 277 326 
406 219 216 217 304 
407 121 108 112 303 
408 96 90 70 306 
409 130 103 123 301 
410 282 277 291 347 
411 189 290 258 350 
412 302 337 279 338 
413 314 342 163 354 
414 308 322 304 339 
415 83 294 85 330 
416 221 216 219 316 
417 283 292 115 346 
418 116 342 106 346 
419 98 300 82 326 
420 283 292 276 322 
421 146 155 142 305 
422 220 304 230 308 
423 282 291 277 316 
424 294 110 344 352 
425 264 241 208 335 
426 186 291 325 349 
427 223 264 208 335 
428 122 110 126 352 
429 286 310 288 318 
430 165 153 141 302 
431 213 282 216 316 
432 70 94 96 289 
433 199 175 187 300 
434 285 291 277 347 
435 122 126 307 352 
436 177 189 180 298 
437 288 310 276 318 
438 75 336 307 352 
439 249 324 298 341 
440 110 104 97 294 
441 252 251 286 317 
442 197 340 185 349 
443 93 70 233 289 
444 80 284 319 330 
445 311 313 285 343 
446 213 215 216 282 
447 281 298 290 324 
448 267 317 290 324 
449 282 315 291 348 
450 234 223 208 335 
451 98 78 300 320 
452 273 329 284 345 
453 286 276 310 318 
454 290 313 311 343 
455 245 249 258 298 
456 186 325 197 340 
457 295 337 332 345 
458 277 291 285 349 
459 275 315 291 347 
460 291 315 282 347 
461 276 292 286 310 
462 72 78 89 305 
463 281 285 311 313 
464 332 337 287 345 
465 307 308 122 344 
466 181 183 182 285 
467 287 332 147 337 
468 93 289 207 336 
469 299 339 232 355 
470 122 344 110 352 
471 277 282 309 347 
472 114 283 113 328 
473 132 302 112 328 
474 92 110 71 352 
475 182 181 285 334 
476 115 113 114 283 
477 314 341 296 354 
478 181 313 285 334 
479 84 319 336 352 
480 186 340 197 349 
481 273 331 287 345 
482 114 283 328 344 
483 115 283 114 322 
484 273 338 329 345 
485 278 292 283 346 
486 276 304 322 339 
487 148 153 151 337 
488 273 287 338 345 
489 130 106 116 342 
490 286 292 278 312 
491 279 302 338 346 
492 189 258 174 350 
493 122 307 344 352 
494 279 338 328 346 
495 279 328 302 346 
496 145 332 295 337 
497 129 118 117 339 
498 281 311 285 331 
499 79 284 80 320 
500 284 80 320 330 
501 148 149 287 314 
502 258 240 174 350 
503 278 321 287 338 
504 140 178 155 293 
505 98 82 79 326 
506 87 96 82 340 
507 79 81 80 284 
508 287 278 314 321 
509 278 342 314 354 
510 81 80 284 319 
511 183 285 181 343 
512 212 213 325 348 
513 284 320 79 326 
514 286 312 278 321 
515 305 320 78 353 
516 286 296 312 321 
517 231 308 307 336 
518 278 312 296 321 
519 298 324 281 341 
520 182 285 183 349 
521 281 311 290 313 
522 113 283 115 346 
523 80 83 85 330 
524 296 324 248 341 
525 171 178 140 293 
526 247 239 161 354 
527 137 239 341 354 
528 84 75 95 336 
529 281 285 313 331 
530 105 308 206 339 
531 81 284 79 326 
532 152 341 314 354 
533 137 161 239 354 
534 138 76 144 295 
535 290 298 281 313 
536 251 248 296 324 
537 300 326 277 340 
538 273 284 323 345 
539 196 291 183 343 
540 295 332 145 353 
541 251 296 248 312 
542 266 310 299 355 
543 227 93 207 336 
544 172 325 291 348 
545 147 148 287 337 
546 112 132 121 302 
547 285 277 323 347 
548 229 206 105 308 
549 71 110 294 352 
550 72 98 78 300 
551 276 339 299 355 
552 119 322 308 339 
553 252 250 251 317 
554 249 248 324 341 
555 275 318 315 347 
556 148 149 147 287 
557 139 165 106 302 
558 84 289 93 336 
559 255 265 317 335 
560 278 301 342 354 
561 304 308 220 336 
562 273 321 287 331 
563 241 288 263 355 
564 282 315 318 347 
565 173 87 199 300 
566 127 103 118 292 
567 206 220 230 308 
568 277 309 323 347 
569 258 290 240 350 
570 304 308 274 322 
571 86 305 78 353 
572 186 197 185 349 
573 287 321 273 338 
574 122 307 107 308 
575 145 147 332 337 
576 304 322 274 333 
577 300 323 280 349 
578 288 315 275 318 
579 288 275 317 318 
580 311 317 275 318 
581 149 147 287 351 
582 197 325 306 340 
583 146 332 305 353 
584 277 309 282 316 
585 92 307 126 352 
586 282 315 215 327 
587 83 294 319 352 
588 160 15 91 144 
589 275 291 315 348 
590 221 289 219 336 
591 178 293 179 334 
592 15 76 91 144 
593 186 183 291 349 
594 296 314 281 341 
595 275 317 290 350 
596 280 320 305 353 
597 260 249 298 341 
598 128 115 292 346 
599 75 93 227 336 
600 106 342 302 346 
601 266 299 261 355 
602 296 256 312 354 
603 323 334 280 349 
604 239 296 248 341 
605 291 277 316 325 
606 300 280 334 349 
607 121 106 165 302 
608 273 309 284 329 
609 275 288 317 335 
610 130 301 120 342 
611 273 309 318 347 
612 282 318 309 347 
613 306 325 277 340 
614 278 296 312 354 
615 265 297 262 350 
616 166 293 155 332 
617 278 312 301 354 
618 174 61 258 189 
619 281 341 314 351 
620 273 311 331 347 
621 288 276 310 355 
622 87 72 199 300 
623 267 290 249 324 
624 240 267 254 350 
625 200 180 290 313 
626 157 260 298 341 
627 198 196 184 343 
628 105 119 308 339 
629 166 150 293 351 
630 273 311 286 321 
631 174 61 240 258 
632 301 163 342 354 
633 182 334 285 349 
634 285 313 181 343 
635 285 331 311 347 
636 209 306 224 316 
637 275 311 290 317 
638 74 306 96 340 
639 114 322 283 344 
640 69 320 295 353 
641 94 289 319 326 
642 113 328 283 346 
643 219 304 220 336 
644 241 263 266 355 
645 214 315 297 335 
646 248 296 256 312 
647 296 278 314 354 
648 192 262 297 350 
649 286 310 292 312 
650 152 314 163 354 
651 289 84 319 336 
652 152 162 314 341 
653 273 286 311 318 
654 274 308 304 336 
655 263 288 255 317 
656 240 290 267 350 
657 273 284 309 323 
658 166 293 332 351 
659 295 345 332 353 
660 126 110 10 92 
661 189 200 180 290 
662 284 329 279 345 
663 69 76 138 295 
664 273 323 331 345 
665 267 258 249 290 
666 222 232 299 339 
667 207 289 221 336 
668 212 205 213 348 
669 211 214 297 335 
670 244 299 266 310 
671 210 307 231 308 
672 284 279 329 330 
673 281 314 296 321 
674 277 323 309 326 
675 120 159 37 342 
676 309 323 284 326 
677 190 178 179 334 
678 286 317 311 318 
679 274 308 307 344 
680 252 263 255 317 
681 233 221 207 289 
682 284 279 330 345 
683 16 138 76 144 
684 47 188 225 348 
685 111 294 110 344 
686 69 78 320 353 
687 248 256 296 354 
688 254 255 265 317 
689 162 314 341 351 
690 179 293 171 313 
691 294 329 279 330 
692 231 220 308 336 
693 251 248 256 312 
694 277 289 309 316 
695 296 281 321 324 
696 277 285 323 349 
697 62 262 192 350 
698 149 287 314 351 
699 75 84 93 336 
700 278 283 338 346 
701 273 318 309 333 
702 22 193 74 340 
703 302 328 132 346 
704 82 98 87 300 
705 311 321 281 324 
706 83 71 294 352 
707 261 299 226 355 
708 187 340 300 349 
709 278 338 302 346 
710 152 137 341 354 
711 309 318 282 333 
712 286 288 317 318 
713 285 311 343 347 
714 81 319 284 326 
715 288 275 315 335 
716 41 140 178 155 
717 276 283 322 333 
718 251 250 248 324 
719 104 294 111 328 
720 130 116 128 346 
721 283 333 329 344 
722 151 163 314 342 
723 206 230 232 339 
724 198 343 184 350 
725 166 150 140 293 
726 106 139 302 342 
727 203 228 236 306 
728 274 329 333 344 
729 329 338 279 345 
730 294 329 319 352 
731 305 332 280 353 
732 148 151 149 314 
733 319 329 274 352 
734 222 299 125 339 
735 92 110 10 71 
736 173 87 300 340 
737 200 343 290 350 
738 328 338 283 346 
739 151 302 153 342 
740 290 317 311 324 
741 226 208 67 355 
742 275 343 311 347 
743 105 32 125 339 
744 178 171 140 41 
745 172 291 196 348 
746 284 320 323 345 
747 280 323 320 345 
748 287 279 337 338 
749 224 306 228 325 
750 120 301 159 342 
751 332 345 280 353 
752 69 86 78 353 
753 304 309 282 333 
754 290 311 275 343 
755 187 300 334 349 
756 267 250 317 324 
757 106 130 120 342 
758 120 37 106 342 
759 255 288 241 335 
760 209 224 221 316 
761 106 302 132 346 
762 186 291 172 325 
763 306 316 277 325 
764 239 260 57 157 
765 294 274 329 352 
766 249 239 248 341 
767 274 333 322 344 
768 224 316 306 325 
769 283 322 333 344 
770 258 267 240 290 
771 74 193 306 340 
772 229 31 131 105 
773 285 331 323 334 
774 280 323 331 334 
775 229 131 210 308 
776 227 307 75 336 
777 204 154 168 298 
778 279 329 328 338 
779 188 297 225 348 
780 69 158 86 353 
781 253 268 257 310 
782 87 74 96 340 
783 271 243 170 301 
784 187 185 340 349 
785 283 328 329 338 
786 279 338 287 345 
787 87 22 74 340 
788 207 221 219 336 
789 139 37 159 342 
790 198 297 188 348 
791 301 312 256 354 
792 285 334 323 349 
793 299 310 276 355 
794 152 161 137 354 
795 147 332 287 351 
796 280 345 320 353 
797 272 168 157 298 
798 293 331 313 334 
799 204 272 177 298 
800 277 309 289 326 
801 173 193 22 340 
802 204 191 154 298 
803 291 343 275 347 
804 285 343 291 347 
805 240 254 265 350 
806 244 266 257 310 
807 86 69 17 158 
808 116 106 132 346 
809 122 308 119 344 
810 192 262 270 297 
811 91 100 160 303 
812 200 313 290 343 
813 304 282 318 333 
814 275 315 297 348 
815 279 287 337 345 
816 281 314 321 351 
817 297 315 275 335 
818 272 157 260 298 
819 313 331 285 334 
820 245 177 272 298 
821 241 255 263 288 
822 245 189 60 177 
823 241 266 261 355 
824 204 168 272 298 
825 134 123 271 301 
826 321 331 281 351 
827 287 331 321 351 
828 36 106 139 165 
829 238 188 201 297 
830 276 322 304 333 
831 269 235 261 299 
832 94 289 84 319 
833 102 236 90 306 
834 289 309 274 319 
835 240 262 62 350 
836 222 235 136 299 
837 71 85 83 294 
838 125 222 136 299 
839 283 329 328 344 
840 218 327 234 355 
841 238 270 211 297 
842 261 235 226 299 
843 320 345 295 353 
844 274 344 307 352 
845 158 305 86 353 
846 71 110 11 97 
847 97 85 71 294 
848 230 304 217 327 
849 270 201 192 297 
850 269 244 136 299 
851 74 203 102 306 
852 119 131 105 308 
853 173 87 21 199 
854 193 203 74 306 
855 225 188 238 297 
856 224 213 316 325 
857 260 239 249 341 
858 179 313 181 334 
859 166 155 146 332 
860 274 309 304 333 
861 147 145 148 337 
862 214 297 315 348 
863 231 219 220 336 
864 138 69 16 76 
865 145 144 156 295 
866 277 323 300 349 
867 167 160 100 303 
868 259 271 123 301 
869 40 155 178 194 
870 328 329 294 344 
871 201 270 238 297 
872 281 290 311 324 
873 191 42 154 171 
874 136 235 269 299 
875 77 88 76 295 
876 331 332 293 351 
877 134 271 170 301 
878 139 106 37 342 
879 145 295 156 337 
880 186 185 183 349 
881 187 173 300 340 
882 103 128 118 292 
883 287 331 332 345 
884 280 332 331 345 
885 267 250 254 317 
886 205 47 225 348 
887 213 214 315 348 
888 77 295 69 320 
889 102 203 236 306 
890 311 318 275 347 
891 139 153 302 342 
892 212 228 45 325 
893 184 343 200 350 
894 276 288 327 355 
895 114 328 111 344 
896 77 88 295 330 
897 87 173 22 340 
898 274 322 308 344 
899 192 297 198 350 
900 62 192 174 350 
901 119 122 107 308 
902 197 176 306 325 
903 194 202 142 305 
904 281 331 293 351 
905 243 301 256 354 
906 276 318 304 327 
907 186 196 172 291 
908 92 133 126 307 
909 164 162 341 351 
910 255 317 288 335 
911 273 311 321 331 
912 273 323 309 347 
913 223 234 315 335 
914 47 172 188 348 
915 258 189 60 245 
916 282 318 315 327 
917 281 313 293 331 
918 282 304 318 327 
919 212 45 195 325 
920 273 333 329 338 
921 274 319 309 329 
922 284 309 319 329 
923 176 228 203 306 
924 214 225 297 348 
925 315 318 288 327 
926 93 84 70 289 
927 69 295 138 353 
928 209 90 236 306 
929 135 100 124 303 
930 101 227 237 307 
931 36 121 106 165 
932 242 259 52 123 
933 304 318 276 333 
934 274 336 319 352 
935 131 107 210 308 
936 276 288 318 327 
937 209 233 25 90 
938 222 206 232 339 
939 210 107 307 308 
940 274 289 319 336 
941 69 138 158 353 
942 309 319 289 326 
943 140 154 42 171 
944 307 308 274 336 
945 241 67 208 355 
946 228 224 209 306 
947 329 333 283 338 
948 81 83 80 319 
949 202 169 142 305 
950 138 17 69 158 
951 214 215 213 315 
952 114 113 111 328 
953 212 195 46 205 
954 187 185 173 340 
955 135 108 167 303 
956 92 101 133 307 
957 199 87 21 72 
958 227 27 207 93 
959 294 328 279 329 
960 111 104 110 294 
961 239 57 137 157 
962 139 151 153 342 
963 223 315 214 335 
964 194 40 155 142 
965 284 319 309 326 
966 190 175 194 305 
967 223 211 65 335 
968 170 243 143 301 
969 223 264 66 208 
970 195 186 172 325 
971 117 115 114 322 
972 296 281 324 341 
973 97 110 11 104 
974 99 202 89 305 
975 157 298 164 341 
976 211 223 214 335 
977 105 206 32 339 
978 163 301 143 354 
979 91 88 73 303 
980 160 141 156 303 
981 182 179 181 334 
982 210 133 237 307 
983 308 322 119 344 
984 65 264 223 335 
985 107 122 126 307 
986 293 313 179 334 
987 225 211 214 297 
988 166 332 147 351 
989 191 177 180 298 
990 264 255 241 335 
991 270 246 211 297 
992 77 320 80 330 
993 264 66 208 241 
994 187 334 182 349 
995 229 220 206 308 
996 94 319 81 326 
997 228 306 176 325 
998 109 136 244 299 
999 118 128 115 292 
1000 146 305 158 353 
1001 131 210 30 229 
1002 202 99 169 305 
1003 140 155 166 293 
1004 183 196 186 291 
1005 180 179 171 313 
1006 240 265 262 350 
1007 184 196 183 343 
1008 152 137 162 341 
1009 124 100 73 303 
1010 135 167 100 303 
1011 227 231 307 336 
1012 112 108 124 303 
1013 281 321 311 331 
1014 94 70 84 289 
1015 125 299 129 339 
1016 108 141 167 303 
1017 104 111 112 328 
1018 197 306 193 340 
1019 246 65 211 335 
1020 199 20 175 72 
1021 287 332 331 351 
1022 214 223 234 315 
1023 260 249 245 298 
1024 159 301 163 342 
1025 256 243 259 301 
1026 240 62 174 350 
1027 122 111 110 344 
1028 70 25 233 90 
1029 198 172 196 348 
1030 132 328 113 346 
1031 280 331 293 334 
1032 105 229 31 206 
1033 142 158 146 305 
1034 27 227 75 93 
1035 166 147 150 351 
1036 179 178 171 293 
1037 246 211 297 335 
1038 293 331 280 332 
1039 101 237 133 307 
1040 202 175 89 305 
1041 141 165 121 35 
1042 176 45 228 325 
1043 79 80 77 320 
1044 103 242 52 123 
1045 65 246 264 335 
1046 274 294 329 344 
1047 184 200 174 350 
1048 200 181 313 343 
1049 273 309 329 333 
1050 234 215 315 327 
1051 279 337 295 345 
1052 111 328 294 344 
1053 246 297 265 335 
1054 311 317 286 324 
1055 78 86 89 305 
1056 199 187 173 300 
1057 153 165 139 302 
1058 227 101 75 307 
1059 295 330 279 345 
1060 172 47 205 348 
1061 176 195 45 325 
1062 152 151 163 314 
1063 133 210 107 307 
1064 35 121 141 108 
1065 296 314 278 321 
1066 72 20 175 89 
1067 26 207 93 233 
1068 224 212 213 325 
1069 220 219 217 304 
1070 248 247 256 354 
1071 218 234 208 355 
1072 218 230 217 327 
1073 56 161 247 239 
1074 128 116 115 346 
1075 81 79 82 326 
1076 243 143 301 354 
1077 274 294 344 352 
1078 77 295 320 330 
1079 77 76 69 295 
1080 220 210 231 308 
1081 138 144 145 295 
1082 232 226 299 355 
1083 131 30 210 107 
1084 287 321 314 351 
1085 161 56 137 239 
1086 274 307 336 352 
1087 213 216 224 316 
1088 198 188 172 348 
1089 172 46 195 205 
1090 132 106 121 302 
1091 302 342 278 346 
1092 72 87 98 300 
1093 265 246 262 297 
1094 183 181 184 343 
1095 125 109 129 299 
1096 145 332 146 353 
1097 120 130 123 301 
1098 138 295 145 353 
1099 193 197 176 306 
1100 163 159 143 301 
1101 290 343 275 350 
1102 204 177 191 298 
1103 280 331 323 345 
1104 154 164 157 298 
1105 74 90 96 306 
1106 168 154 157 298 
1107 119 322 114 344 
1108 164 150 162 351 
1109 77 69 78 320 
1110 215 218 217 327 
1111 226 222 232 299 
1112 242 268 256 312 
1113 244 261 266 299 
1114 230 220 217 304 
1115 209 236 228 306 
1116 116 113 115 346 
1117 134 120 123 301 
1118 245 272 260 298 
1119 225 238 211 297 
1120 192 188 198 297 
1121 273 318 311 347 
1122 182 183 185 349 
1123 227 231 210 307 
1124 226 235 222 299 
1125 149 314 162 351 
1126 102 90 74 306 
1127 188 192 201 297 
1128 284 330 320 345 
1129 320 330 295 345 
1130 261 244 269 299 
1131 259 243 271 301 
1132 94 84 81 319 
1133 160 91 14 100 
1134 248 250 249 324 
1135 233 93 26 70 
1136 212 224 228 325 
1137 266 263 253 310 
1138 55 143 243 354 
1139 107 131 119 308 
1140 187 182 185 349 
1141 146 145 147 332 
1142 167 160 14 100 
1143 274 329 309 333 
1144 174 192 198 350 
1145 98 79 78 320 
1146 202 194 175 305 
1147 270 262 246 297 
1148 247 55 243 354 
1149 133 237 29 210 
1150 109 125 136 299 
1151 227 207 231 336 
1152 159 170 143 301 
1153 160 167 141 303 
1154 9 133 126 92 
1155 73 100 91 303 
1156 234 218 215 327 
1157 176 203 193 306 
1158 174 198 184 350 
1159 108 135 124 303 
1160 194 202 39 142 
1161 300 340 277 349 
1162 71 95 92 352 
1163 253 257 266 310 
1164 133 107 126 307 
1165 169 158 142 305 
1166 251 256 268 312 
1167 55 161 143 354 
1168 203 44 236 228 
1169 89 86 99 305 
1170 247 161 55 354 
1171 133 9 101 92 
1172 159 170 134 38 
1173 63 270 192 262 
1174 94 82 96 326 
1175 120 159 134 38 
1176 250 252 254 317 
1177 197 186 176 325 
1178 86 18 99 158 
1179 272 59 204 177 
1180 169 39 202 142 
1181 18 169 99 158 
1182 224 216 221 316 
1183 210 220 229 308 
1184 170 271 54 243 
1185 210 29 133 107 
1186 59 272 245 177 
1187 116 132 113 346 
1188 63 270 201 192 
1189 250 267 249 324 
1190 23 74 193 203 
1191 74 23 102 203 
1192 182 187 190 334 
1193 53 134 123 271 
1194 58 272 168 157 
1195 252 255 254 317 
1196 68 261 269 235 
1197 222 136 33 125 
1198 261 68 226 235 
1199 33 136 222 235 
1200 48 188 201 238 
1201 272 58 260 157 
1202 243 256 247 354 
1203 149 150 147 351 
1204 152 162 149 314 
1205 225 188 48 238 
1206 157 164 137 341 
1207 53 123 259 271 
1208 200 184 181 343 
1209 237 101 28 227 
1210 200 181 180 313 
1211 210 237 227 307 
1212 92 75 101 307 
1213 152 163 143 354 
1214 215 214 234 315 
1215 132 112 113 328 
1216 238 211 270 64 
1217 34 135 108 167 
1218 135 13 124 100 
1219 122 119 114 344 
1220 44 203 176 228 
1221 85 88 80 330 
1222 269 49 136 244 
1223 213 205 214 348 
1224 62 174 61 240 
1225 119 117 114 322 
1226 181 179 180 313 
1227 108 141 34 167 
1228 99 202 19 89 
1229 102 24 90 236 
1230 143 170 54 243 
1231 231 207 219 336 
1232 13 73 124 100 
1233 83 95 71 352 
1234 24 209 90 236 
1235 214 205 225 348 
1236 175 19 202 89 
1237 76 15 16 144 
1238 156 153 148 337 
1239 37 106 139 36 
1240 87 21 22 173 
1241 227 101 28 75 
1242 211 270 64 246 
1243 173 197 193 340 
1244 109 136 49 244 
1245 125 129 105 339 
1246 139 159 163 342 
1247 113 112 111 328 
1248 149 151 152 314 
1249 11 10 110 71 
1250 173 185 197 340 
1251 105 129 117 339 
1252 163 151 139 342 
1253 162 137 164 341 
1254 77 80 88 330 
1255 79 77 78 320 
1256 232 208 226 355 
1257 190 179 182 334 
1258 195 176 186 325 
1259 60 59 245 177 
1260 40 194 39 142 
1261 91 14 15 160 
1262 255 246 265 335 
1263 94 81 82 326 
1264 138 145 146 353 
1265 83 81 84 319 
1266 145 156 148 337 
1267 122 114 111 344 
1268 178 41 155 40 
1269 143 161 152 354 
1270 232 218 208 355 
1271 35 141 34 108 
1272 86 17 18 158 
1273 149 162 150 351 
1274 146 158 138 353 
1275 236 102 4 203 
1276 168 272 7 204 
1277 237 1 101 133 
1278 238 201 8 270 
1279 2 135 167 100 
1280 169 202 3 99 
1281 6 170 134 271 
1282 5 269 136 235 
1283 61 258 189 60 
1284 66 208 241 67 
1285 30 29 210 107 
1286 54 55 143 243 
1287 31 32 105 206 
1288 42 140 171 41 
1289 246 64 211 65 
1290 147 166 146 332 
1291 44 176 45 228 
1292 175 20 19 89 
1293 73 12 13 124 
1294 47 225 188 48 
1295 25 24 209 90 
1296 259 52 123 53 
1297 10 9 126 92 
1298 58 57 260 157 
1299 222 33 32 125 
1300 255 264 246 335 
1301 69 16 17 138 
1302 159 120 37 38 
1303 192 62 63 262 
1304 52 51 242 103 
1305 45 212 195 46 
1306 207 27 26 93 
1307 43 191 42 154 
1308 51 127 50 257 
1309 56 57 137 239 
1310 22 23 74 193 
1311 227 28 27 75 
1312 226 67 68 261 
1313 205 172 46 47 
1314 50 109 49 244 
1315 270 201 8 63 
1316 167 14 2 100 
1317 1 9 101 133 
1318 272 7 58 168 
1319 43 168 7 204 
1320 272 59 7 204 
1321 48 201 8 238 
1322 5 68 269 235 
1323 23 4 102 203 
1324 39 202 3 169 
1325 134 170 6 38 
1326 53 6 134 271 
1327 136 33 5 235 
1328 3 18 169 99 
1329 264 65 223 66 
1330 199 21 20 72 
1331 161 247 55 56 
1332 44 236 4 203 
1333 101 28 1 237 
1334 270 8 238 64 
1335 6 170 271 54 
1336 5 269 49 136 
1337 165 36 121 35 
1338 202 19 3 99 
1339 102 4 24 236 
1340 135 2 13 100 
1341 29 1 237 133 
1342 34 2 135 167 
1343 233 26 25 70 
1344 97 11 12 104 
1345 131 30 31 229 
1346 303 97 85 73 
1347 303 85 97 294 
1348 306 233 316 209 
1349 306 316 233 289 
1350 221 316 233 209 
1351 221 233 316 289 
1352 346 292 312 278 
1353 312 292 346 130 
1354 312 301 346 278 
1355 346 301 312 130 
1356 322 118 115 292 
1357 322 115 118 117 
1358 257 109 50 244 
1359 257 50 109 127 
1360 352 75 92 307 
1361 352 92 75 95 
1362 334 178 305 190 
1363 334 305 178 293 
1364 317 263 310 252 
1365 317 310 263 288 
1366 172 348 195 325 
1367 172 195 348 205 
1368 212 195 348 325 
1369 212 348 195 205 
1370 338 333 286 273 
1371 338 286 333 283 
1372 257 103 51 127 
1373 51 103 257 242 
1374 355 230 218 327 
1375 355 218 230 232 
1376 339 119 117 105 
1377 339 117 119 322 
1378 354 248 239 296 
1379 354 239 248 247 
1380 331 347 323 273 
1381 323 347 331 285 
1382 104 73 12 97 
1383 104 12 73 124 
1384 321 324 286 296 
1385 286 324 321 311 
1386 90 233 306 209 
1387 90 306 233 70 
1388 350 189 200 174 
1389 350 200 189 290 
1390 67 355 261 226 
1391 261 355 67 241 
1392 339 32 222 206 
1393 339 222 32 125 
1394 157 239 341 137 
1395 157 341 239 260 
1396 352 84 83 95 
1397 352 83 84 319 
1398 99 158 305 86 
1399 305 158 99 169 
1400 154 204 43 191 
1401 154 43 204 168 
1402 159 134 301 120 
1403 301 134 159 170 
1404 310 268 286 253 
1405 310 286 268 312 
1406 251 286 268 253 
1407 251 268 286 312 
1408 242 301 256 259 
1409 242 256 301 312 
$EndElements
