$MeshFormat
4.1 0 8
$EndMeshFormat
$PhysicalNames
3
2 2 "BottomFace"
2 3 "TopFace"
3 1 "CubeVolume"
$EndPhysicalNames
$Entities
8 12 6 1
1 0 0 0 0 
2 10 0 0 0 
3 10 10 0 0 
4 0 10 0 0 
5 0 0 10 0 
6 10 0 10 0 
7 10 10 10 0 
8 0 10 10 0 
1 0 0 0 10 0 0 0 2 1 -2 
2 10 0 0 10 10 0 0 2 2 -3 
3 0 10 0 10 10 0 0 2 3 -4 
4 0 0 0 0 10 0 0 2 4 -1 
5 0 0 0 0 0 10 0 2 1 -5 
6 10 0 0 10 0 10 0 2 2 -6 
7 10 10 0 10 10 10 0 2 3 -7 
8 0 10 0 0 10 10 0 2 4 -8 
9 0 0 10 10 0 10 0 2 5 -6 
10 10 0 10 10 10 10 0 2 6 -7 
11 0 10 10 10 10 10 0 2 7 -8 
12 0 0 10 0 10 10 0 2 8 -5 
1 0 0 0 10 10 0 1 2 4 1 2 3 4 
2 0 0 0 10 0 10 0 4 1 6 -9 -5 
3 10 0 0 10 10 10 0 4 2 7 -10 -6 
4 0 10 0 10 10 10 0 4 3 8 -11 -7 
5 0 0 0 0 10 10 0 4 4 5 -12 -8 
6 0 0 10 10 10 10 1 3 4 9 10 11 12 
1 0 0 0 10 10 10 1 1 6 1 2 3 4 5 6 
$EndEntities
$Nodes
27 711 1 711
0 1 0 1
1
0 0 0
0 2 0 1
2
10 0 0
0 3 0 1
3
10 10 0
0 4 0 1
4
0 10 0
0 5 0 1
5
0 0 10
0 6 0 1
6
10 0 10
0 7 0 1
7
10 10 10
0 8 0 1
8
0 10 10
1 1 0 7
9
10
11
12
13
14
15
1.249999999998969 0 0
2.499999999995362 0 0
3.749999999991711 0 0
4.999999999992398 0 0
6.249999999994298 0 0
7.499999999996199 0 0
8.749999999998099 0 0
1 2 0 7
16
17
18
19
20
21
22
10 1.249999999998969 0
10 2.499999999995362 0
10 3.749999999991711 0
10 4.999999999992398 0
10 6.249999999994298 0
10 7.499999999996199 0
10 8.749999999998099 0
1 3 0 7
23
24
25
26
27
28
29
8.75 10 0
7.5 10 0
6.25 10 0
5 10 0
3.75 10 0
2.5 10 0
1.25 10 0
1 4 0 7
30
31
32
33
34
35
36
0 8.75 0
0 7.5 0
0 6.25 0
0 5 0
0 3.75 0
0 2.5 0
0 1.25 0
1 5 0 7
37
38
39
40
41
42
43
0 0 1.249999999998969
0 0 2.499999999995362
0 0 3.749999999991711
0 0 4.999999999992398
0 0 6.249999999994298
0 0 7.499999999996199
0 0 8.749999999998099
1 6 0 7
44
45
46
47
48
49
50
10 0 1.249999999998969
10 0 2.499999999995362
10 0 3.749999999991711
10 0 4.999999999992398
10 0 6.249999999994298
10 0 7.499999999996199
10 0 8.749999999998099
1 7 0 7
51
52
53
54
55
56
57
10 10 1.249999999998969
10 10 2.499999999995362
10 10 3.749999999991711
10 10 4.999999999992398
10 10 6.249999999994298
10 10 7.499999999996199
10 10 8.749999999998099
1 8 0 7
58
59
60
61
62
63
64
0 10 1.249999999998969
0 10 2.499999999995362
0 10 3.749999999991711
0 10 4.999999999992398
0 10 6.249999999994298
0 10 7.499999999996199
0 10 8.749999999998099
1 9 0 7
65
66
67
68
69
70
71
1.249999999998969 0 10
2.499999999995362 0 10
3.749999999991711 0 10
4.999999999992398 0 10
6.249999999994298 0 10
7.499999999996199 0 10
8.749999999998099 0 10
1 10 0 7
72
73
74
75
76
77
78
10 1.249999999998969 10
10 2.499999999995362 10
10 3.749999999991711 10
10 4.999999999992398 10
10 6.249999999994298 10
10 7.499999999996199 10
10 8.749999999998099 10
1 11 0 7
79
80
81
82
83
84
85
8.75 10 10
7.5 10 10
6.25 10 10
5 10 10
3.75 10 10
2.5 10 10
1.25 10 10
1 12 0 7
86
87
88
89
90
91
92
0 8.75 10
0 7.5 10
0 6.25 10
0 5 10
0 3.75 10
0 2.5 10
0 1.25 10
2 1 0 66
93
94
95
96
97
98
99
100
101
102
103
104
105
106
107
108
109
110
111
112
113
114
115
116
117
118
119
120
121
122
123
124
125
126
127
128
129
130
131
132
133
134
135
136
137
138
139
140
141
142
143
144
145
146
147
148
149
150
151
152
153
154
155
156
157
158
8.917468245268521 5.624999999993663 0
4.285123011523138 8.875756189752462 0
1.082531754730548 4.375 0
5.640948631057146 1.10724939175521 0
8.929849573902013 3.098918535631019 0
3.3077402607654 1.18262685101564 0
6.983407068383205 8.879629843804155 0
1.044931860864367 6.871891340151749 0
1.869093576234827 8.792304632362637 0
8.941534943678949 8.119703288395918 0
1.082531754730548 1.875 0
7.96657934402002 1.094851921885096 0
8.92147936167043 6.874117214727971 0
7.83560500993799 6.249852869116225 0
7.835047910437511 4.99997547818087 0
6.752534725690425 5.62497139121231 0
6.763905878140563 4.356631168731195 0
5.671811503112563 4.996933759986963 0
5.670217733063255 6.249484191862778 0
4.587721772016538 5.624402991971419 0
4.587727737630159 4.374389458656411 0
3.504809471615629 4.99999999999483 0
3.50487289589412 6.249900498657547 0
3.504873890162846 3.749898243105467 0
4.587416381317279 3.124881283623998 0
2.422277716885156 5.624999999994851 0
3.504809471614966 2.499999999995787 0
2.476316204100912 3.133247548436184 0
2.47676924341204 6.866188400231652 0
3.597862139242392 7.670613576950013 0
4.550074250813561 1.875860079824586 0
5.669872981075128 2.499999999995351 0
6.767859519473888 1.778732193716712 0
6.821170180026082 3.014840143010947 0
7.868767533096557 2.375681941673336 0
7.850006773590396 3.716791341334031 0
7.732133862748507 7.694087719085687 0
8.920749558552469 4.367938732750888 0
1.082531754730348 3.124999999999653 0
2.422277716885579 4.374999999994792 0
4.587341226346323 6.874999999994615 0
5.661282640766164 7.457334242167182 0
5.644649267150399 8.719967613086581 0
3.095485562737916 8.896545148151787 0
1.082531754730549 5.625 0
6.752404735807111 6.874999999993963 0
5.683650776883629 3.72794596900081 0
1.933620068390818 1.034157830570309 0
8.136297386704678 8.960144954881905 0
0.929256486734251 8.081462788185995 0
8.971730864403799 1.911333561284882 0
2.557132099094478 7.943059204751755 0
2.500733495327819 2.010889394406864 0
4.755251657005683 7.919734324390172 0
4.374999999992055 0.8453570123734758 0
6.608054062871929 7.912073233094384 0
6.874999999995248 0.773375545254851 0
9.084936490537011 0.9150635094622048 0
0.9150635094609958 0.9150635094612717 0
9.084936490537693 9.084936490537187 0
0.9150635094610944 9.084936490538905 0
1.752404735809832 3.749999999995221 0
1.752404735810014 4.999999999995122 0
1.752404735810254 6.249999999994888 0
1.753069671232993 2.601613479798639 0
1.746449973845219 7.489644266062689 0
2 2 0 67
159
160
161
162
163
164
165
166
167
168
169
170
171
172
173
174
175
176
177
178
179
180
181
182
183
184
185
186
187
188
189
190
191
192
193
194
195
196
197
198
199
200
201
202
203
204
205
206
207
208
209
210
211
212
213
214
215
216
217
218
219
220
221
222
223
224
225
5.741214795610444 0 8.808310019960015
5.7148769884715 0 1.124243810244699
1.082531754731507 0 5.62499999999361
8.943758686553313 0 5.670536380050438
3.016592931613369 0 1.120370156191625
8.955068139138319 0 3.12810865984147
3.195843214110276 0 8.976833674699776
1.082531754731087 0 3.124999999993973
8.945379619479903 0 8.076656081752857
8.130906423763145 0 1.207695367635515
1.058465056320755 0 8.119703288396124
1.078520638329501 0 6.874117214728241
2.164394990061938 0 6.249852869116575
2.164952089562544 0 4.999975478180962
3.247465274309427 0 5.624971391212434
3.247595264193144 0 4.374999999994276
4.330105353942551 0 4.999995231864017
4.338014933788379 0 6.18187479873416
5.42322084455864 0 5.597621752399343
5.414415507974205 0 4.370436164040196
6.426761188255338 0 4.994676319402743
6.463335776138474 0 6.276784027162432
6.484078427415903 0 3.748352080570101
5.391334984015225 0 3.158197932768321
7.577722283114436 0 4.374999999994167
6.405297726497666 0 2.332620553365075
2.165044939479409 0 3.74999591302559
3.268525699854321 0 3.16125725751627
2.274960165807523 0 2.31018750130691
1.058183330728652 0 1.866274877641009
2.058172538932593 0 7.522022982018967
1.082510089750758 0 4.37499523186304
8.917468245268283 0 6.874999999994421
7.865878827523227 0 7.537479060344777
7.967657096190899 0 8.855247200897063
6.845448607412934 0 8.1702404720763
7.749727927764646 0 6.343748004031632
6.904890611751366 0 1.103839867361096
4.354123541372595 0 1.273937278648258
4.374999999992055 0 8.91746824527136
4.99999999999008 0 7.834936490539398
8.866050300253043 0 4.398459425665756
7.577722283114247 0 3.124999999994537
4.330350638150323 0 3.760814431029841
4.335267119001526 0 2.587858980678033
3.249129911016699 0 6.965259868553114
9.070743513265384 0 1.91853721181095
1.977329424488583 0 8.823443215123973
1.864513601741653 0 1.038694733976527
3.83430579419031 0 7.990421005800748
5.247128395901889 0 6.782790897437549
7.45447341425605 0 2.05590230445768
5.255577594900491 0 2.091093894247611
6.860864099840954 0 9.166759538586675
3.427980336276827 0 2.091243776931889
6.972097994468442 0 7.189271638776039
8.039634987326448 0 5.279882910058713
0.915063509462206 0 9.084936490537011
9.084936490537011 0 0.9150635094622048
0.915063509458773 0 0.915063509458773
9.084936490537507 0 9.084936490537507
6.013793186896343 0 7.54116541173665
4.322099987432832 0 7.18742168552491
8.247185888454851 0 3.686845263396055
7.223833862404685 0 5.50287018009117
8.25355002615383 0 2.510355733932178
2.863761652599919 0 8.060606070215936
2 3 0 67
226
227
228
229
230
231
232
233
234
235
236
237
238
239
240
241
242
243
244
245
246
247
248
249
250
251
252
253
254
255
256
257
258
259
260
261
262
263
264
265
266
267
268
269
270
271
272
273
274
275
276
277
278
279
280
281
282
283
284
285
286
287
288
289
290
291
292
10 5.741214795610444 8.808310019960015
10 5.7148769884715 1.124243810244699
10 1.082531754731507 5.62499999999361
10 8.943758686553313 5.670536380050438
10 3.016592931613369 1.120370156191625
10 8.955068139138319 3.12810865984147
10 3.195843214110276 8.976833674699776
10 1.082531754731087 3.124999999993973
10 8.945379619479903 8.076656081752857
10 8.130906423763145 1.207695367635515
10 1.058465056320755 8.119703288396124
10 1.078520638329501 6.874117214728241
10 2.164394990061938 6.249852869116575
10 2.164952089562544 4.999975478180962
10 3.247465274309427 5.624971391212434
10 3.247595264193144 4.374999999994276
10 4.330105353942551 4.999995231864017
10 4.338014933788379 6.18187479873416
10 5.42322084455864 5.597621752399343
10 5.414415507974205 4.370436164040196
10 6.426761188255338 4.994676319402743
10 6.463335776138474 6.276784027162432
10 6.484078427415903 3.748352080570101
10 5.391334984015225 3.158197932768321
10 7.577722283114436 4.374999999994167
10 6.405297726497666 2.332620553365075
10 2.165044939479409 3.74999591302559
10 3.268525699854321 3.16125725751627
10 2.274960165807523 2.31018750130691
10 1.058183330728652 1.866274877641009
10 2.058172538932593 7.522022982018967
10 1.082510089750758 4.37499523186304
10 8.917468245268283 6.874999999994421
10 7.865878827523227 7.537479060344777
10 7.967657096190899 8.855247200897063
10 6.845448607412934 8.1702404720763
10 7.749727927764646 6.343748004031632
10 6.904890611751366 1.103839867361096
10 4.354123541372595 1.273937278648258
10 4.374999999992055 8.91746824527136
10 4.99999999999008 7.834936490539398
10 8.866050300253043 4.398459425665756
10 7.577722283114247 3.124999999994537
10 4.330350638150323 3.760814431029841
10 4.335267119001526 2.587858980678033
10 3.249129911016699 6.965259868553114
10 9.070743513265384 1.91853721181095
10 1.977329424488583 8.823443215123973
10 1.864513601741653 1.038694733976527
10 3.83430579419031 7.990421005800748
10 5.247128395901889 6.782790897437549
10 7.45447341425605 2.05590230445768
10 5.255577594900491 2.091093894247611
10 6.860864099840954 9.166759538586675
10 3.427980336276827 2.091243776931889
10 6.972097994468442 7.189271638776039
10 8.039634987326448 5.279882910058713
10 0.915063509462206 9.084936490537011
10 9.084936490537011 0.9150635094622048
10 0.915063509458773 0.915063509458773
10 9.084936490537507 9.084936490537507
10 6.013793186896343 7.54116541173665
10 4.322099987432832 7.18742168552491
10 8.247185888454851 3.686845263396055
10 7.223833862404685 5.50287018009117
10 8.25355002615383 2.510355733932178
10 2.863761652599919 8.060606070215936
2 4 0 65
293
294
295
296
297
298
299
300
301
302
303
304
305
306
307
308
309
310
311
312
313
314
315
316
317
318
319
320
321
322
323
324
325
326
327
328
329
330
331
332
333
334
335
336
337
338
339
340
341
342
343
344
345
346
347
348
349
350
351
352
353
354
355
356
357
1.012049280397593 10 5.624999999992914
8.917468245268514 10 5.624999999993649
5.640948631061663 10 1.107249391755399
4.196779927781767 10 8.80058168455216
3.265915722013662 10 1.18153676625964
8.929849573902079 10 3.098918535632649
6.983407068383142 10 8.879629843804437
1.189276714964352 10 3.09042307406075
1.054620380519993 10 8.07665608175332
8.941534943678956 10 8.119703288396007
7.96657934402239 10 1.094851921887112
8.921479361670453 10 6.874117214728227
7.835605009938057 10 6.249852869116578
7.83504791043751 10 4.999975478180929
6.752534725690488 10 5.624971391212451
6.763905878140438 10 4.356631168731738
5.671811503112629 10 4.996933759986965
5.670217733063245 10 6.249484191862842
4.587721772016485 10 5.624402991971357
4.587727737630264 10 4.374389458656085
3.531227755725184 10 4.954262361710484
3.504809471615601 10 6.249999999994691
3.517908363821619 10 3.757225372297109
4.589588793594103 10 3.126102471821839
2.511786798965689 10 4.356119886653309
3.450679956106491 10 2.53766845603667
4.524002979414407 10 1.880704059312691
2.269259356135227 10 2.071445712414912
5.667954157700616 10 2.48420403176073
6.767696354223886 10 1.777388999141894
6.82117018002486 10 3.014840143014485
7.86875365850117 10 2.375567724452214
7.85000512185268 10 3.7167777440465
7.732133862748475 10 7.694087719085918
1.066132779973733 10 6.866942680287914
2.131388010017015 10 7.53613617372772
2.03195245202798 10 8.855055359951871
3.083151439845393 10 8.163665732864928
2.165063509462274 10 6.249999999994555
8.920749361917023 10 4.367937114026358
1.08253175472772 10 4.374999999990463
6.752404735807361 10 6.874999999994377
5.66128264076603 10 7.457334242167244
5.632028826615758 10 8.709228398058029
5.683693041700485 10 3.725516838995307
4.675649307956196 10 6.830027699824485
1.057063823570052 10 1.874999999997166
8.136297386704669 10 8.960144954881978
8.971730864402897 10 1.911333561286817
2.446635479040907 10 3.260480416909096
1.874985737204236 10 0.9927172251150662
4.817935267174601 10 7.855303229914338
4.375 10 0.8453570123718891
3.12500000000307 10 9.162658773649333
6.588766753391165 10 7.915413425411893
6.875 10 0.7733755452570967
3.043138693839653 10 7.143703311669477
2.636648362169277 10 5.357034132925373
9.084936490538729 10 0.9150635094609969
0.9150635094623057 10 9.084936490537189
9.084936490537693 10 9.084936490537187
0.9075933678028695 10 0.9075933678025871
1.784440857899636 10 4.982577382133255
1.757049288601189 10 3.818440272783773
3.910442575883334 10 7.489500642766266
2 5 0 65
358
359
360
361
362
363
364
365
366
367
368
369
370
371
372
373
374
375
376
377
378
379
380
381
382
383
384
385
386
387
388
389
390
391
392
393
394
395
396
397
398
399
400
401
402
403
404
405
406
407
408
409
410
411
412
413
414
415
416
417
418
419
420
421
422
0 8.917468245268514 5.624999999993649
0 1.012049280397581 5.624999999992541
0 5.640948631061684 1.107249391755387
0 4.196779927781871 8.800581684551842
0 3.265915722013682 1.181536766259642
0 8.929849573902089 3.098918535632631
0 6.983407068383142 8.879629843804437
0 1.189276714964367 3.090423074060752
0 1.054620380520066 8.076656081752802
0 8.941534943678956 8.119703288396007
0 7.966579344022404 1.094851921887084
0 8.921479361670453 6.874117214728227
0 7.835605009938057 6.249852869116578
0 7.83504791043751 4.999975478180936
0 6.752534725690495 5.624971391212453
0 6.763905878140452 4.356631168731743
0 5.671811503112643 4.996933759986966
0 5.67021773306325 6.249484191862836
0 4.587721772016499 5.624402991971341
0 4.587727737630287 4.374389458656078
0 3.531227755725234 4.954262361710409
0 3.504809471615609 6.249999999994664
0 3.517908363821662 3.75722537229708
0 4.589588793594144 3.126102471821833
0 2.511786798965738 4.356119886653253
0 3.450679956106534 2.537668456036667
0 4.524002979414447 1.880704059312686
0 2.269259356135256 2.071445712414943
0 5.667954157700665 2.484204031760727
0 6.767696354223915 1.777388999141858
0 6.82117018002493 3.014840143014436
0 7.868753658501202 2.375567724452162
0 7.850005121852691 3.716777744046493
0 7.732133862748474 7.694087719085918
0 1.066132779973732 6.866942680287506
0 2.131388010017076 7.536136173726991
0 2.031952452028163 8.855055359951374
0 3.083151439845456 8.163665732864395
0 2.165063509462241 6.249999999993842
0 8.920749361917025 4.367937114026356
0 1.082531754727722 4.374999999990466
0 6.752404735807364 6.874999999994379
0 5.661282640766029 7.45733424216724
0 5.63202882661577 8.709228398057981
0 5.683693041700519 3.725516838995296
0 4.675649307956131 6.830027699824479
0 1.05706382357007 1.874999999997166
0 8.136297386704669 8.960144954881978
0 8.971730864402934 1.911333561286766
0 2.446635479040943 3.260480416909086
0 1.874985737204242 0.9927172251150795
0 4.81793526717453 7.85530322991427
0 4.375 0.8453570123718898
0 3.125000000003964 9.162658773648374
0 6.588766753391162 7.915413425411888
0 6.874999999999999 0.7733755452570704
0 3.043138693839339 7.143703311668873
0 2.636648362169379 5.357034132925124
0 9.084936490538729 0.9150635094609969
0 0.9150635094623057 9.084936490537189
0 9.084936490537693 9.084936490537187
0 0.9075933678028705 0.9075933678025883
0 1.784440857899662 4.982577382133173
0 1.757049288601221 3.818440272783766
0 3.910442575883059 7.48950064276619
2 6 0 66
423
424
425
426
427
428
429
430
431
432
433
434
435
436
437
438
439
440
441
442
443
444
445
446
447
448
449
450
451
452
453
454
455
456
457
458
459
460
461
462
463
464
465
466
467
468
469
470
471
472
473
474
475
476
477
478
479
480
481
482
483
484
485
486
487
488
8.917468245268521 5.624999999993663 10
4.285123011523138 8.875756189752462 10
1.082531754730548 4.375 10
5.640948631057146 1.10724939175521 10
8.929849573902013 3.098918535631019 10
3.3077402607654 1.18262685101564 10
6.983407068383205 8.879629843804155 10
1.044931860864367 6.871891340151749 10
1.869093576234827 8.792304632362637 10
8.941534943678949 8.119703288395918 10
1.082531754730548 1.875 10
7.96657934402002 1.094851921885096 10
8.92147936167043 6.874117214727971 10
7.83560500993799 6.249852869116225 10
7.835047910437511 4.99997547818087 10
6.752534725690425 5.62497139121231 10
6.763905878140563 4.356631168731195 10
5.671811503112563 4.996933759986963 10
5.670217733063255 6.249484191862778 10
4.587721772016538 5.624402991971419 10
4.587727737630159 4.374389458656411 10
3.504809471615629 4.99999999999483 10
3.50487289589412 6.249900498657547 10
3.504873890162846 3.749898243105467 10
4.587416381317279 3.124881283623998 10
2.422277716885156 5.624999999994851 10
3.504809471614966 2.499999999995787 10
2.476316204100912 3.133247548436184 10
2.47676924341204 6.866188400231652 10
3.597862139242392 7.670613576950013 10
4.550074250813561 1.875860079824586 10
5.669872981075128 2.499999999995351 10
6.767859519473888 1.778732193716712 10
6.821170180026082 3.014840143010947 10
7.868767533096557 2.375681941673336 10
7.850006773590396 3.716791341334031 10
7.732133862748507 7.694087719085687 10
8.920749558552469 4.367938732750888 10
1.082531754730348 3.124999999999653 10
2.422277716885579 4.374999999994792 10
4.587341226346323 6.874999999994615 10
5.661282640766164 7.457334242167182 10
5.644649267150399 8.719967613086581 10
3.095485562737916 8.896545148151787 10
1.082531754730549 5.625 10
6.752404735807111 6.874999999993963 10
5.683650776883629 3.72794596900081 10
1.933620068390818 1.034157830570309 10
8.136297386704678 8.960144954881905 10
0.929256486734251 8.081462788185995 10
8.971730864403799 1.911333561284882 10
2.557132099094478 7.943059204751755 10
2.500733495327819 2.010889394406864 10
4.755251657005683 7.919734324390172 10
4.374999999992055 0.8453570123734758 10
6.608054062871929 7.912073233094384 10
6.874999999995248 0.773375545254851 10
9.084936490537011 0.9150635094622048 10
0.9150635094609958 0.9150635094612717 10
9.084936490537693 9.084936490537187 10
0.9150635094610944 9.084936490538905 10
1.752404735809832 3.749999999995221 10
1.752404735810014 4.999999999995122 10
1.752404735810254 6.249999999994888 10
1.753069671232993 2.601613479798639 10
1.746449973845219 7.489644266062689 10
3 1 0 223
489
490
491
492
493
494
495
496
497
498
499
500
501
502
503
504
505
506
507
508
509
510
511
512
513
514
515
516
517
518
519
520
521
522
523
524
525
526
527
528
529
530
531
532
533
534
535
536
537
538
539
540
541
542
543
544
545
546
547
548
549
550
551
552
553
554
555
556
557
558
559
560
561
562
563
564
565
566
567
568
569
570
571
572
573
574
575
576
577
578
579
580
581
582
583
584
585
586
587
588
589
590
591
592
593
594
595
596
597
598
599
600
601
602
603
604
605
606
607
608
609
610
611
612
613
614
615
616
617
618
619
620
621
622
623
624
625
626
627
628
629
630
631
632
633
634
635
636
637
638
639
640
641
642
643
644
645
646
647
648
649
650
651
652
653
654
655
656
657
658
659
660
661
662
663
664
665
666
667
668
669
670
671
672
673
674
675
676
677
678
679
680
681
682
683
684
685
686
687
688
689
690
691
692
693
694
695
696
697
698
699
700
701
702
703
704
705
706
707
708
709
710
711
4.99989018561971 5.00014379233667 5.000143889502637
6.848470421904461 6.826084025243924 6.826084025243926
3.138285523842062 3.195228934284038 3.128178318078711
3.173625741821665 3.185711057462176 6.880116558552729
6.827920085813666 3.152498869166915 6.826403598790363
3.188271099674762 6.880714630659551 3.163765266123133
3.186760119343263 6.826454796796137 6.881129940406044
6.999853056897011 3.026476703912813 3.764135072956103
6.882204356129675 6.818783254254729 3.183107074935369
5.285422748707144 4.472019284178984 2.493633416464279
4.835099850620098 4.999928448427188 7.542474011836395
7.537200890941758 5.176793747002035 5.011805192523264
4.935075997226262 2.463888371361751 5.191965771076092
2.465066179103377 4.766286834023433 5.01465257244312
4.784397014693752 7.534161239083677 5.033030591224925
7.60119506257077 4.765977977341011 2.317497567502021
5.0315075812777 7.760470182431147 7.7714451517181
2.227536595389009 2.281273259854991 5.01058595277707
2.239387754746034 5.00921960496236 7.805299537197168
5.13254264905049 2.204834396144982 2.648934020789447
2.270289814919324 7.781710788415554 5.035622005232869
7.877070651659233 7.528187694746674 5.012549812496591
2.324088515793865 5.058755019926335 2.172330019403321
7.751355026436187 4.984263634576585 7.751359152533126
5.056256819519395 7.816875003850374 2.255855318686919
5.006725500889816 2.259125850921426 7.820901838227875
7.939066351302561 2.093919635779856 5.393799512744477
7.900071690588564 2.072498503536454 2.098261670888302
8.044358295676899 8.007494280396376 2.013256868983655
1.991394501140976 8.003132326534145 8.041413817237748
5.022931922458834 6.194619786169911 3.425934458067789
1.997843828769164 7.991601267052152 1.951067181945327
1.952483668421009 2.085495303335264 8.056146700580227
8.01732119513359 1.98204090911243 8.002370513304072
1.805768790221227 1.830712909186174 3.204369675578988
4.046064783010304 5.816752011816865 1.824858310611454
1.887958449993843 3.175885035309809 1.758404995974642
6.826418233761121 8.153726517943669 8.15200144327534
6.377193992226609 4.941429687713835 6.470856020864925
3.6080627265551 4.965862304560598 3.538791776650027
3.464720938905807 1.878034500063428 1.796351027838637
6.188337416815125 5.897300189894272 1.738909684678384
1.750667230335581 6.228150149858023 5.887060361907738
6.328100055761617 6.551848250613884 4.91071607452391
3.397573995716011 6.341366458268697 4.903883720689509
3.756264196518902 1.717816784501963 4.010244545359269
6.3367989898087 8.21498637681348 5.739206772400926
5.090489076486953 6.466358969587108 6.48336302639892
6.455126268365429 3.202285059285262 1.810513754739616
6.211589794285986 5.937597911941734 8.286279402412529
1.794502658046493 6.164730217996154 4.075722194852069
8.248018529633809 8.200277162191126 6.902425547578333
8.298147260458617 6.742345259319034 8.246952979266005
6.243722925472552 4.099663542761197 8.27112567155662
8.279539495506498 3.796997636135437 5.937751403060068
6.054763734864895 8.239207091772474 3.948240441098382
6.205164969218871 3.708346137294113 5.201289546167418
3.41639783389503 5.110475771195296 6.476646543856939
1.669500053712373 4.118915991850465 3.552321673935029
5.113854147082775 3.531077518202215 6.593633203386324
3.744697164229614 4.077532530181717 1.72094327416572
4.076119159591295 8.331961478116565 3.628628114635895
6.443914104446504 5.168617117390202 3.62722986930727
3.869466459744243 1.602313936449549 6.67735839700453
8.319133829900462 5.832017735153936 3.551238338844112
4.050247971426975 3.641193331058895 8.333214385731416
4.66430464640688 3.60896760838383 3.889843037279248
1.683104396455602 4.03622512493665 6.429992041379165
4.02488121707046 8.317520402258987 6.426537654469543
5.930726128350422 1.680607571192776 6.427240658573647
8.316433061126885 5.952142615478522 6.390294222876403
3.83613766599421 3.783886977237549 5.398403176589005
8.045369414472225 1.686547298179038 3.747120368590876
8.398518286121464 3.912930660956373 4.226530229846358
6.405815262705173 1.702224251213624 4.701004291957631
4.081573807692364 6.38438544356797 8.337090523446488
3.540656423883702 1.617394971704236 8.321600779493053
1.619562055506695 8.328798625165252 3.568874546269916
8.321768102359407 6.2905294703969 1.867189632139802
8.321752365709097 8.384846903982533 3.631642051559131
8.390373104909397 3.572670174777747 8.411360536602647
3.600810280316902 8.398952233958569 8.447859823647189
1.603376134999514 1.60353572532948 6.452142640424473
1.587962310378428 6.427991558046585 8.360765648482538
1.55577186708289 1.558648549825833 1.5860389447835
6.532598437395978 7.502444931287601 1.594482834383332
8.432859560003401 3.548625809445482 1.548310167880377
1.530798263207933 3.640988653746479 8.375661657856766
1.530859836831096 6.485822546520719 2.469109670533195
6.51168960974423 2.480646332317206 8.466953908341271
6.616135417688895 1.658924105603993 2.990597603593202
3.547332538929629 7.468060200890295 1.64989002127969
1.580672176048791 8.419494714070165 6.448643031108369
8.44420170126301 8.47782986233309 8.581701629178241
6.089375472733699 1.666905121692061 1.462645435249245
4.960815626941501 3.180198350681119 1.482707652254956
8.534887927203895 1.466364200220447 6.656868694832442
1.505973986054752 3.604188661206495 4.96002517635287
5.200634904541274 1.389786399492773 3.889663878861233
3.537490532699131 5.018563818066862 8.519056312933376
6.789957837879112 8.533394961950268 2.664716214006164
3.570569446806554 8.511026256174951 5.019755432286273
8.526234249778568 3.109195125504666 2.973388492914488
6.776319849382122 1.383574611421992 7.562392461427684
2.588387431989469 6.33004828756591 1.405208533622136
1.42652342562963 7.074715706645775 7.047625055246797
8.631222388491464 4.977393848184613 1.299070709386743
5.968019752294636 8.630679995290318 7.081449331218794
8.550513664423283 6.230611841420234 4.940485598390534
6.108721044809028 4.516052719743837 1.29847275831958
2.864343340916505 8.658582935859911 2.9029273740141
8.603337134683391 7.126777701628323 2.999758629817546
5.067713616489582 6.705972972922715 1.344011289208245
8.578202168911973 2.974359317417857 7.09922524123406
3.551119152586328 2.392073810323834 5.532267393310318
8.693339684044751 8.719481533768329 4.995879266827995
2.795148942700728 3.064558130359516 8.626223006736618
2.821946561529977 3.444392954535855 4.479499889807084
2.818868009278716 8.614077584559707 7.083980486701494
8.733174764603955 7.225065663690365 6.05315979606955
5.79886390580115 3.336449612577758 3.12310615082603
1.241928691925313 5.345982450773118 6.864764453369195
8.737385039207801 4.720611172303511 6.83878867828326
1.369460409344 5.66183781362854 1.360372563271196
2.848433030607072 7.032345485707411 8.634918425874011
5.304874739888775 6.860596542623266 8.795668768686022
1.367576981571465 2.834423236754276 7.046016635995537
7.264339535615314 8.692397528222925 4.509695238755594
1.291073411752269 1.237721308567008 4.999994001313576
1.211928483378861 2.871698114777499 3.850576999953996
8.783972653189078 2.612378362402143 4.442920888801851
4.820381049447325 1.221641555594501 5.763938850660569
1.231791804628039 8.716294447418978 4.995939182093259
8.745719615270913 4.996016767454171 8.750319056027388
5.071025782395504 8.721802736799198 5.645541377983382
8.73933327522105 4.604079553850022 3.081412643903906
7.392900795547397 5.537857842608947 1.215028364164722
4.740737072012939 1.303347447265713 1.640709703925922
5.295406072044361 3.223787517858038 8.770714463040438
2.668390120121844 1.222597265312702 7.247207709503051
5.888969054724626 8.734155966133081 1.625370676554204
4.788727559950766 4.821651797455694 1.282401449222343
8.712666334092026 1.287333665911085 1.287333665911085
2.772008947819297 1.283960718023321 5.792668992195691
7.178208313308882 1.219490962337284 6.116293714640978
7.257501710764886 1.223552720566043 8.800031104085161
1.28503546287091 5.170558971617045 8.745613694693722
3.999433094067616 8.718749540268673 2.086242791356836
3.098536381819212 3.022685756410221 1.189025061946264
1.198898989695312 5.343680196068837 3.152343333162078
1.26138652599283 4.307896073755991 1.344837378671345
1.198737924791051 5.133129541273865 5.316478524416842
8.808846069232704 4.866160167995137 5.318019347837906
7.465260765271868 3.287610944550398 4.997640982360665
5.137436813090017 5.323920274397483 8.811134477748896
3.028000717120122 1.313155234224086 2.944922536648808
7.618199941363322 8.579790857905502 5.790232990664563
1.161792387828785 7.409397820901685 5.68140182912403
1.219540418541168 7.331952048550145 4.354280685895283
5.765243599566885 1.331628661773457 8.485868199670225
4.928290873180928 8.776339909994485 8.746821687299617
1.458057803951317 7.004055606911202 1.251914372519363
4.667415672185147 4.732392573756758 6.255076481786652
3.348577096127419 7.397636514025754 5.698885562960996
4.702492910634225 6.255035556281066 4.707530955411745
6.999209653141804 5.027472465558586 8.842384757349357
4.918635076291427 4.904443751722136 3.685894847154692
5.199352683014535 8.820064865143475 3.114532478109384
4.350375020928616 3.350767559824304 2.637147963893662
8.796212044032554 1.177369462664647 4.943145719723982
6.613747516366018 2.555056578439308 5.677190409061609
6.939942284584506 6.957829987030154 8.69693519728585
2.599457970114327 1.131913577656703 4.502451205804113
7.367770915043547 4.252482278690189 3.497146447703604
3.712833519324483 5.108297714290149 5.203234216833128
2.534009984514892 3.315982865623508 5.74784958245511
5.071676751750672 7.49524245973574 3.520468635189914
6.253792833847596 5.286323314881036 5.218746513774801
5.837860551634027 2.812091014231835 4.316993941491488
7.383589831174773 6.519632469557274 5.676574979376188
2.962493419076177 8.592314049781178 1.278229781768185
8.722480861577083 1.185302483229866 2.872257770627756
1.224707864670634 2.639073930431715 5.774835854372676
7.457822725941433 6.460016894754504 4.285581465098294
5.221224727585796 7.753854030605963 6.491303742140856
1.168241691772691 8.848509283695787 2.466752451239878
4.90033751435868 1.129430338058999 7.249661941133844
7.341105435419743 1.269256605811763 1.176857091897102
2.666202802203194 8.752201139290241 4.156921839592802
1.1777921927584 1.199144252028705 8.610458034176649
3.286974507684041 7.477097671896918 4.302973567504154
7.375484265323128 4.21338076056733 1.150498558235354
4.234287445448903 2.515365873268247 8.925079756759816
2.536670779205331 4.175553363535101 1.263939943567265
3.270450079533866 4.31849795303875 7.476522017967837
5.760901770787603 6.787591927238104 2.558976905303193
2.63146434590971 8.813075236469199 5.834248331102111
8.811703248326612 1.167045155490933 8.608956623264502
4.103741160568588 5.970044921524453 7.127599035462178
2.634612800255457 5.729353536287162 3.215759752231664
4.316192193631614 6.822246152324394 2.565876609133523
4.319974823202005 1.242998576302316 2.946806444165324
1.164601858600125 8.586628699643855 1.164601858600055
8.768766459925889 8.7687664599269 1.231233540074087
7.201676288888159 8.805656253587863 1.328013642529979
1.228466674761616 8.771533325238385 8.771533325239387
7.623780406697736 4.84514205321025 6.236776039668493
4.41649776339367 8.839585139053671 7.604620022426522
8.723084352985053 5.825059519386601 7.610727535005641
8.856593086321775 8.83897804014026 2.557122972533885
4.779279125146594 8.373776794733541 1.167851399637457
4.9940851321452 8.794604119135728 4.377906561971215
2.963510822136658 6.045687164016627 7.85133623287626
1.191876503543075 2.573863388117214 8.899123597086849
5.850298778858613 4.15438029429087 4.078764484347325
7.472052262874052 2.80641944725812 1.139425288001354
7.196644187890996 3.486187159559753 8.869128356022642
5.778115955703276 6.795325401786008 7.479819069434678
7.206502922289042 8.860443898375157 7.176430058955255
6.507845903497154 4.204125687068178 2.561680698887174
1.171163554358089 7.509888932416713 8.871440170681893
7.773572388438566 3.931332702597669 7.077150521525581
1.105767895022976 8.871019848087291 7.523029296178932
$EndNodes
$Elements
3 3038 1 3038
2 1 2 162
1 1 9 151 
2 36 1 151 
3 15 2 150 
4 2 16 150 
5 22 3 152 
6 3 23 152 
7 29 4 153 
8 4 30 153 
9 9 10 140 
10 9 140 151 
11 10 11 98 
12 10 98 140 
13 11 12 147 
14 98 11 147 
15 12 13 96 
16 12 96 147 
17 13 14 149 
18 96 13 149 
19 14 15 104 
20 14 104 149 
21 104 15 150 
22 16 17 143 
23 16 143 150 
24 17 18 97 
25 17 97 143 
26 18 19 130 
27 97 18 130 
28 19 20 93 
29 19 93 130 
30 20 21 105 
31 93 20 105 
32 21 22 102 
33 21 102 105 
34 102 22 152 
35 23 24 141 
36 23 141 152 
37 24 25 99 
38 24 99 141 
39 25 26 135 
40 99 25 135 
41 26 27 94 
42 26 94 135 
43 27 28 136 
44 94 27 136 
45 28 29 101 
46 28 101 136 
47 101 29 153 
48 30 31 142 
49 30 142 153 
50 31 32 100 
51 31 100 142 
52 32 33 137 
53 100 32 137 
54 33 34 95 
55 33 95 137 
56 34 35 131 
57 95 34 131 
58 35 36 103 
59 35 103 131 
60 103 36 151 
61 93 105 106 
62 93 106 107 
63 93 107 130 
64 122 94 136 
65 94 122 146 
66 135 94 146 
67 95 131 154 
68 137 95 155 
69 95 154 155 
70 123 96 124 
71 96 123 147 
72 124 96 125 
73 125 96 149 
74 127 97 128 
75 97 127 143 
76 128 97 130 
77 119 98 123 
78 98 119 145 
79 123 98 147 
80 140 98 145 
81 99 129 141 
82 129 99 148 
83 99 135 148 
84 100 137 156 
85 142 100 158 
86 100 156 158 
87 136 101 144 
88 142 101 153 
89 101 142 158 
90 144 101 158 
91 105 102 129 
92 129 102 141 
93 141 102 152 
94 131 103 157 
95 103 140 145 
96 140 103 151 
97 103 145 157 
98 125 104 127 
99 104 125 149 
100 127 104 143 
101 143 104 150 
102 106 105 129 
103 107 106 108 
104 108 106 138 
105 106 129 138 
106 107 108 109 
107 107 109 128 
108 107 128 130 
109 109 108 110 
110 110 108 111 
111 111 108 138 
112 109 110 139 
113 109 126 128 
114 126 109 139 
115 110 111 112 
116 110 112 113 
117 110 113 139 
118 112 111 133 
119 133 111 134 
120 134 111 138 
121 113 112 114 
122 114 112 115 
123 115 112 133 
124 113 114 116 
125 113 116 117 
126 113 117 139 
127 114 115 118 
128 116 114 132 
129 114 118 132 
130 118 115 121 
131 121 115 122 
132 122 115 133 
133 117 116 119 
134 119 116 120 
135 120 116 132 
136 117 119 123 
137 117 123 124 
138 117 124 139 
139 118 121 156 
140 132 118 155 
141 155 118 156 
142 119 120 145 
143 120 132 154 
144 145 120 157 
145 120 154 157 
146 121 122 144 
147 121 144 158 
148 156 121 158 
149 122 133 146 
150 122 136 144 
151 124 125 126 
152 124 126 139 
153 126 125 127 
154 126 127 128 
155 138 129 148 
156 154 131 157 
157 154 132 155 
158 133 134 146 
159 134 135 146 
160 135 134 148 
161 134 138 148 
162 137 155 156 
2 6 2 162
163 5 65 481 
164 92 5 481 
165 71 6 480 
166 6 72 480 
167 78 7 482 
168 7 79 482 
169 85 8 483 
170 8 86 483 
171 65 66 470 
172 65 470 481 
173 66 67 428 
174 66 428 470 
175 67 68 477 
176 428 67 477 
177 68 69 426 
178 68 426 477 
179 69 70 479 
180 426 69 479 
181 70 71 434 
182 70 434 479 
183 434 71 480 
184 72 73 473 
185 72 473 480 
186 73 74 427 
187 73 427 473 
188 74 75 460 
189 427 74 460 
190 75 76 423 
191 75 423 460 
192 76 77 435 
193 423 76 435 
194 77 78 432 
195 77 432 435 
196 432 78 482 
197 79 80 471 
198 79 471 482 
199 80 81 429 
200 80 429 471 
201 81 82 465 
202 429 81 465 
203 82 83 424 
204 82 424 465 
205 83 84 466 
206 424 83 466 
207 84 85 431 
208 84 431 466 
209 431 85 483 
210 86 87 472 
211 86 472 483 
212 87 88 430 
213 87 430 472 
214 88 89 467 
215 430 88 467 
216 89 90 425 
217 89 425 467 
218 90 91 461 
219 425 90 461 
220 91 92 433 
221 91 433 461 
222 433 92 481 
223 423 435 436 
224 423 436 437 
225 423 437 460 
226 452 424 466 
227 424 452 476 
228 465 424 476 
229 425 461 484 
230 467 425 485 
231 425 484 485 
232 453 426 454 
233 426 453 477 
234 454 426 455 
235 455 426 479 
236 457 427 458 
237 427 457 473 
238 458 427 460 
239 449 428 453 
240 428 449 475 
241 453 428 477 
242 470 428 475 
243 429 459 471 
244 459 429 478 
245 429 465 478 
246 430 467 486 
247 472 430 488 
248 430 486 488 
249 466 431 474 
250 472 431 483 
251 431 472 488 
252 474 431 488 
253 435 432 459 
254 459 432 471 
255 471 432 482 
256 461 433 487 
257 433 470 475 
258 470 433 481 
259 433 475 487 
260 455 434 457 
261 434 455 479 
262 457 434 473 
263 473 434 480 
264 436 435 459 
265 437 436 438 
266 438 436 468 
267 436 459 468 
268 437 438 439 
269 437 439 458 
270 437 458 460 
271 439 438 440 
272 440 438 441 
273 441 438 468 
274 439 440 469 
275 439 456 458 
276 456 439 469 
277 440 441 442 
278 440 442 443 
279 440 443 469 
280 442 441 463 
281 463 441 464 
282 464 441 468 
283 443 442 444 
284 444 442 445 
285 445 442 463 
286 443 444 446 
287 443 446 447 
288 443 447 469 
289 444 445 448 
290 446 444 462 
291 444 448 462 
292 448 445 451 
293 451 445 452 
294 452 445 463 
295 447 446 449 
296 449 446 450 
297 450 446 462 
298 447 449 453 
299 447 453 454 
300 447 454 469 
301 448 451 486 
302 462 448 485 
303 485 448 486 
304 449 450 475 
305 450 462 484 
306 475 450 487 
307 450 484 487 
308 451 452 474 
309 451 474 488 
310 486 451 488 
311 452 463 476 
312 452 466 474 
313 454 455 456 
314 454 456 469 
315 456 455 457 
316 456 457 458 
317 468 459 478 
318 484 461 487 
319 484 462 485 
320 463 464 476 
321 464 465 476 
322 465 464 478 
323 464 468 478 
324 467 485 486 
3 1 4 2714
325 548 552 501 558 
326 514 542 493 548 
327 507 588 462 605 
328 277 517 263 567 
329 507 462 576 605 
330 524 593 114 682 
331 175 620 534 632 
332 466 474 518 570 
333 508 579 211 583 
334 537 591 575 708 
335 514 552 548 558 
336 497 504 530 567 
337 514 493 542 578 
338 250 597 510 600 
339 536 533 663 687 
340 522 493 585 633 
341 530 567 504 625 
342 240 543 515 602 
343 526 614 464 649 
344 522 592 493 633 
345 504 575 591 708 
346 508 583 211 626 
347 129 567 517 574 
348 495 505 557 570 
349 505 495 564 570 
350 496 591 537 708 
351 473 273 522 569 
352 531 610 546 701 
353 518 570 329 694 
354 502 546 531 610 
355 502 556 546 610 
356 105 517 263 692 
357 506 523 491 534 
358 211 508 182 579 
359 105 263 517 567 
360 281 541 540 608 
361 536 652 533 687 
362 501 558 552 620 
363 477 648 565 681 
364 567 574 106 625 
365 240 515 238 602 
366 250 510 568 600 
367 175 632 534 661 
368 534 603 555 606 
369 546 610 507 701 
370 490 527 512 538 
371 523 525 491 529 
372 490 538 512 541 
373 498 524 519 530 
374 515 585 493 633 
375 511 593 524 682 
376 516 537 496 591 
377 157 525 131 573 
378 206 521 470 565 
379 516 579 210 670 
380 594 646 581 652 
381 489 555 545 560 
382 493 585 515 602 
383 183 223 215 633 
384 545 555 501 560 
385 466 329 570 694 
386 492 548 514 552 
387 206 470 521 678 
388 490 536 532 666 
389 492 514 554 565 
390 536 533 653 663 
391 493 522 585 602 
392 385 523 525 618 
393 490 527 536 666 
394 496 662 591 708 
395 497 530 504 551 
396 223 183 563 633 
397 542 548 514 627 
398 473 427 273 569 
399 495 594 581 652 
400 534 620 603 632 
401 497 567 530 574 
402 515 563 183 633 
403 144 580 520 593 
404 515 561 183 563 
405 476 452 570 614 
406 281 541 608 697 
407 381 638 547 639 
408 531 546 495 701 
409 506 534 491 606 
410 546 663 533 687 
411 531 646 594 652 
412 144 593 520 650 
413 504 497 553 567 
414 499 548 542 627 
415 568 589 497 616 
416 102 105 263 692 
417 102 263 235 692 
418 170 571 392 678 
419 114 549 524 682 
420 501 555 534 603 
421 138 106 574 625 
422 495 533 652 687 
423 509 581 646 652 
424 499 554 548 627 
425 497 616 544 672 
426 511 525 491 547 
427 143 631 575 704 
428 492 548 552 603 
429 190 523 398 617 
430 514 578 542 627 
431 520 494 566 577 
432 490 532 536 673 
433 476 614 570 649 
434 473 522 273 686 
435 491 528 511 547 
436 490 535 532 673 
437 491 523 506 606 
438 525 529 523 573 
439 495 531 594 652 
440 501 552 548 603 
441 564 570 452 614 
442 129 106 567 574 
443 501 548 545 560 
444 544 497 589 616 
445 409 576 610 635 
446 476 463 452 614 
447 512 527 490 695 
448 514 492 552 565 
449 491 525 523 618 
450 477 198 565 648 
451 495 531 533 546 
452 385 407 523 618 
453 516 575 537 591 
454 540 541 490 608 
455 383 547 525 639 
456 491 547 525 618 
457 492 514 548 554 
458 541 559 490 608 
459 259 540 281 541 
460 504 591 662 708 
461 519 530 524 684 
462 273 292 522 569 
463 497 551 504 553 
464 131 525 362 573 
465 564 570 495 613 
466 566 647 494 679 
467 555 603 560 606 
468 389 520 566 577 
469 491 511 528 549 
470 492 556 576 683 
471 448 588 462 635 
472 448 635 572 701 
473 495 570 557 607 
474 165 206 470 565 
475 462 588 507 635 
476 493 705 522 710 
477 505 614 526 649 
478 381 547 383 639 
479 254 516 575 631 
480 505 536 495 673 
481 532 544 535 616 
482 523 529 491 644 
483 492 632 571 664 
484 532 535 510 616 
485 463 564 452 614 
486 508 555 534 587 
487 143 230 575 631 
488 423 541 226 622 
489 118 114 593 682 
490 211 508 626 690 
491 594 610 531 701 
492 273 427 232 569 
493 346 466 329 570 
494 512 490 559 695 
495 409 576 422 610 
496 143 575 97 704 
497 522 705 569 710 
498 466 431 329 694 
499 211 182 508 690 
500 493 514 558 578 
501 525 547 383 618 
502 490 541 512 697 
503 527 499 538 706 
504 492 628 571 632 
505 421 398 523 617 
506 537 575 516 704 
507 163 529 98 573 
508 572 635 507 701 
509 491 525 511 682 
510 453 648 477 681 
511 533 495 546 687 
512 385 525 383 618 
513 527 536 499 706 
514 495 536 505 687 
515 502 610 531 640 
516 465 526 464 649 
517 557 570 505 696 
518 498 528 524 549 
519 229 540 294 604 
520 492 576 556 615 
521 515 543 240 619 
522 507 610 576 635 
523 183 561 515 658 
524 238 515 585 602 
525 502 556 610 640 
526 505 495 557 673 
527 240 239 515 619 
528 502 533 531 546 
529 512 538 527 542 
530 422 576 556 610 
531 490 666 532 668 
532 494 647 539 679 
533 490 512 559 697 
534 512 622 541 654 
535 493 542 527 548 
536 527 542 499 548 
537 534 555 501 587 
538 520 580 144 669 
539 498 530 519 551 
540 505 570 564 614 
541 189 571 170 678 
542 143 230 97 575 
543 392 571 393 678 
544 497 517 567 574 
545 570 614 505 649 
546 201 210 579 670 
547 388 577 566 647 
548 581 607 495 652 
549 530 574 567 625 
550 533 652 536 653 
551 465 478 464 526 
552 532 653 551 666 
553 536 663 651 687 
554 470 521 475 565 
555 519 551 532 653 
556 278 249 567 624 
557 462 507 576 635 
558 495 594 531 701 
559 210 579 516 676 
560 389 566 388 577 
561 523 534 506 661 
562 514 548 493 558 
563 491 529 657 690 
564 499 527 538 542 
565 508 182 579 587 
566 385 383 407 618 
567 105 517 129 567 
568 541 622 436 654 
569 493 578 522 705 
570 129 138 106 574 
571 501 560 555 603 
572 509 646 531 652 
573 245 553 624 641 
574 493 578 558 592 
575 282 510 290 608 
576 565 648 198 675 
577 119 529 584 637 
578 240 239 238 515 
579 489 551 653 666 
580 534 555 491 606 
581 533 546 502 663 
582 534 555 508 657 
583 165 470 428 565 
584 495 652 536 687 
585 165 225 206 565 
586 554 565 514 681 
587 536 653 651 663 
588 491 657 534 690 
589 294 604 540 645 
590 492 565 554 605 
591 553 567 249 624 
592 393 571 521 678 
593 103 157 131 573 
594 496 537 516 579 
595 389 566 520 674 
596 273 232 292 569 
597 517 567 277 600 
598 492 615 571 628 
599 170 392 366 678 
600 494 653 519 679 
601 494 519 665 679 
602 190 166 398 523 
603 495 570 607 613 
604 464 614 526 660 
605 512 541 538 654 
606 653 665 519 679 
607 558 578 514 592 
608 189 628 571 678 
609 556 576 507 610 
610 555 501 587 667 
611 329 518 330 570 
612 538 654 541 660 
613 173 632 175 661 
614 575 631 516 704 
615 527 666 490 668 
616 211 579 184 583 
617 535 544 309 616 
618 181 563 561 579 
619 366 392 393 678 
620 491 511 549 682 
621 540 490 645 668 
622 524 528 511 549 
623 524 530 498 630 
624 519 532 497 665 
625 282 250 290 510 
626 131 362 408 573 
627 517 497 568 589 
628 536 652 503 653 
629 254 575 230 631 
630 521 615 492 628 
631 245 624 562 641 
632 524 549 511 682 
633 529 491 644 690 
634 651 663 546 687 
635 571 628 521 678 
636 478 464 526 660 
637 507 576 556 683 
638 174 175 534 661 
639 489 651 536 653 
640 98 529 145 573 
641 446 462 588 605 
642 489 651 653 663 
643 552 558 514 675 
644 562 624 553 641 
645 538 541 490 660 
646 490 540 526 541 
647 540 541 259 582 
648 385 525 523 573 
649 372 646 531 647 
650 525 547 511 639 
651 539 547 502 640 
652 507 588 605 683 
653 540 645 608 668 
654 304 540 234 582 
655 169 170 366 678 
656 121 593 144 650 
657 497 517 568 600 
658 497 532 519 551 
659 495 607 518 613 
660 448 572 613 701 
661 539 638 547 640 
662 336 526 465 649 
663 493 515 543 602 
664 555 587 508 667 
665 495 581 594 607 
666 521 492 565 628 
667 492 603 632 664 
668 495 505 564 687 
669 494 520 566 599 
670 524 528 498 655 
671 365 421 398 523 
672 545 500 662 703 
673 503 536 532 673 
674 506 606 523 618 
675 547 638 511 639 
676 491 523 606 618 
677 492 605 576 615 
678 510 600 597 672 
679 571 615 492 664 
680 187 529 573 644 
681 523 573 529 644 
682 183 561 181 563 
683 182 587 508 690 
684 492 552 628 632 
685 497 544 532 672 
686 384 638 381 639 
687 497 600 568 672 
688 121 580 144 593 
689 545 500 642 662 
690 179 177 558 563 
691 576 605 492 683 
692 555 560 528 606 
693 532 544 497 665 
694 558 563 177 620 
695 346 329 330 570 
696 534 644 491 690 
697 448 462 485 635 
698 503 532 535 673 
699 248 597 250 600 
700 490 559 541 697 
701 519 551 530 684 
702 492 521 565 605 
703 523 491 534 644 
704 309 544 535 700 
705 250 568 510 604 
706 540 608 490 668 
707 547 638 377 640 
708 175 587 534 620 
709 535 490 645 707 
710 492 560 548 603 
711 258 234 304 540 
712 336 596 526 649 
713 540 604 262 608 
714 515 633 493 659 
715 302 304 234 582 
716 163 98 140 573 
717 502 528 547 688 
718 499 554 627 643 
719 169 189 170 678 
720 275 611 569 622 
721 490 527 538 706 
722 530 601 524 684 
723 518 607 570 613 
724 278 567 595 624 
725 492 548 651 683 
726 173 620 175 632 
727 299 429 465 526 
728 384 381 383 639 
729 275 288 602 611 
730 546 556 507 610 
731 211 182 184 579 
732 534 657 508 690 
733 565 648 514 681 
734 119 529 123 584 
735 529 123 584 626 
736 489 545 555 703 
737 178 177 563 620 
738 509 533 531 539 
739 519 524 498 655 
740 229 304 294 540 
741 527 651 536 666 
742 540 645 490 707 
743 187 529 163 573 
744 330 570 518 607 
745 572 610 594 701 
746 492 554 548 683 
747 491 555 534 657 
748 548 554 499 683 
749 494 528 524 689 
750 347 526 336 596 
751 519 528 524 655 
752 178 563 587 620 
753 493 545 527 695 
754 499 627 542 643 
755 502 533 528 688 
756 373 372 374 647 
757 541 654 436 660 
758 514 648 565 675 
759 502 547 528 606 
760 494 524 528 688 
761 559 608 541 697 
762 502 547 539 688 
763 503 535 532 544 
764 179 563 558 633 
765 528 560 555 663 
766 336 299 465 526 
767 491 528 547 606 
768 518 570 474 613 
769 522 569 602 710 
770 429 526 299 582 
771 408 103 131 573 
772 226 622 541 697 
773 522 602 493 710 
774 138 574 530 625 
775 489 536 651 666 
776 521 628 206 678 
777 550 580 494 599 
778 373 374 539 647 
779 143 274 230 631 
780 494 519 528 689 
781 548 560 492 651 
782 250 510 282 604 
783 269 562 245 624 
784 421 617 523 618 
785 536 653 532 666 
786 528 549 498 657 
787 546 492 560 651 
788 292 522 569 602 
789 548 554 514 627 
790 257 164 200 670 
791 564 643 499 706 
792 492 651 546 683 
793 423 436 541 622 
794 445 588 448 701 
795 492 556 546 664 
796 580 599 550 636 
797 229 258 304 540 
798 520 494 577 593 
799 490 536 527 706 
800 445 448 613 701 
801 174 173 175 661 
802 275 266 611 622 
803 502 531 533 539 
804 502 539 533 688 
805 259 541 261 582 
806 494 533 653 679 
807 546 556 492 683 
808 552 565 492 628 
809 489 653 536 666 
810 528 511 547 688 
811 535 645 490 668 
812 607 652 581 685 
813 111 530 601 630 
814 452 570 564 613 
815 279 260 261 541 
816 199 198 648 675 
817 521 605 492 615 
818 494 580 550 689 
819 443 627 554 643 
820 524 549 114 630 
821 238 515 239 658 
822 124 583 584 626 
823 495 533 531 652 
824 543 562 240 619 
825 167 236 585 686 
826 493 527 542 710 
827 512 542 527 710 
828 528 606 560 663 
829 524 528 519 689 
830 517 497 567 600 
831 275 602 569 611 
832 282 604 510 608 
833 520 580 494 593 
834 555 655 528 663 
835 237 167 236 585 
836 208 565 198 675 
837 143 97 127 704 
838 242 240 543 562 
839 491 529 525 637 
840 492 603 552 632 
841 502 546 556 664 
842 390 388 566 647 
843 309 307 535 616 
844 262 540 229 604 
845 145 525 157 573 
846 494 528 533 688 
847 328 330 518 607 
848 538 542 512 654 
849 382 617 618 671 
850 548 499 651 683 
851 288 275 266 611 
852 437 654 622 705 
853 98 145 140 573 
854 254 575 516 591 
855 187 213 529 644 
856 111 110 530 630 
857 513 589 544 684 
858 529 508 657 690 
859 446 588 554 605 
860 115 580 524 601 
861 580 636 550 689 
862 489 655 555 663 
863 493 527 545 548 
864 143 127 631 704 
865 494 599 566 679 
866 490 535 596 707 
867 496 561 515 563 
868 226 279 261 541 
869 278 249 251 567 
870 238 585 515 658 
871 518 594 495 613 
872 551 662 500 703 
873 490 527 668 695 
874 495 613 594 701 
875 145 573 529 637 
876 568 600 510 672 
877 510 608 645 668 
878 493 543 515 659 
879 513 544 665 684 
880 249 553 251 567 
881 222 200 164 670 
882 281 608 559 697 
883 309 535 623 700 
884 365 398 166 523 
885 519 684 524 689 
886 389 390 388 566 
887 210 184 579 676 
888 543 642 515 659 
889 622 654 569 705 
890 500 545 666 703 
891 545 548 527 651 
892 157 525 145 637 
893 499 687 564 706 
894 500 562 553 641 
895 503 652 536 673 
896 365 523 166 573 
897 548 558 501 659 
898 269 245 562 641 
899 521 571 615 628 
900 457 569 522 705 
901 210 516 670 676 
902 614 643 564 706 
903 259 281 261 541 
904 274 254 230 631 
905 504 551 530 708 
906 501 555 545 667 
907 305 294 540 645 
908 495 594 518 607 
909 117 119 584 637 
910 242 562 543 641 
911 511 528 524 688 
912 503 544 532 665 
913 330 329 328 518 
914 402 638 539 640 
915 538 499 643 706 
916 548 560 501 603 
917 499 536 527 651 
918 520 577 389 650 
919 529 573 525 637 
920 340 471 429 582 
921 507 610 572 701 
922 260 261 541 582 
923 191 167 237 585 
924 490 526 540 707 
925 393 521 571 615 
926 428 470 475 565 
927 115 133 580 601 
928 457 522 578 705 
929 494 665 519 689 
930 491 555 528 606 
931 210 670 631 676 
932 489 555 560 663 
933 545 642 500 695 
934 491 549 525 682 
935 541 622 512 697 
936 491 525 549 637 
937 234 540 259 582 
938 199 208 198 675 
939 571 632 506 664 
940 490 668 559 695 
941 549 637 525 682 
942 180 179 177 558 
943 179 558 180 633 
944 145 525 573 637 
945 221 552 208 675 
946 509 647 566 679 
947 388 539 577 647 
948 528 533 502 663 
949 554 605 565 681 
950 474 694 518 709 
951 402 377 638 640 
952 241 240 562 619 
953 115 114 524 593 
954 503 532 536 653 
955 277 692 517 698 
956 213 163 187 529 
957 377 586 547 640 
958 491 549 528 657 
959 532 535 490 668 
960 458 622 569 705 
961 594 613 572 701 
962 530 551 497 684 
963 526 541 540 582 
964 362 525 385 573 
965 197 98 529 626 
966 568 589 324 698 
967 492 546 560 664 
968 457 578 522 634 
969 437 622 458 705 
970 308 309 544 616 
971 509 581 652 685 
972 382 617 421 618 
973 494 593 524 688 
974 502 560 546 664 
975 117 119 123 584 
976 242 241 240 562 
977 111 601 112 630 
978 256 522 292 602 
979 256 273 292 522 
980 530 551 498 708 
981 497 544 589 684 
982 528 502 606 663 
983 542 627 469 643 
984 541 582 526 660 
985 534 587 501 620 
986 134 138 574 601 
987 554 588 443 643 
988 457 522 473 686 
989 459 526 582 660 
990 258 259 234 540 
991 178 177 179 563 
992 134 111 138 601 
993 521 576 605 615 
994 400 594 572 610 
995 556 576 422 615 
996 201 579 561 670 
997 500 666 551 703 
998 517 600 277 698 
999 553 245 597 641 
1000 325 589 568 616 
1001 496 561 516 591 
1002 515 496 563 642 
1003 519 653 532 665 
1004 435 541 459 582 
1005 412 572 400 594 
1006 547 638 539 688 
1007 516 561 496 579 
1008 459 526 429 582 
1009 299 526 326 582 
1010 496 537 579 609 
1011 340 429 299 582 
1012 459 582 541 660 
1013 507 605 576 683 
1014 323 544 589 616 
1015 282 262 604 608 
1016 532 653 503 665 
1017 516 579 537 583 
1018 526 596 505 649 
1019 134 601 574 699 
1020 164 257 233 670 
1021 553 562 500 662 
1022 146 580 133 699 
1023 538 643 614 706 
1024 493 558 548 659 
1025 325 324 568 589 
1026 526 326 582 707 
1027 552 620 558 675 
1028 175 202 534 587 
1029 117 584 549 637 
1030 124 584 123 626 
1031 490 596 526 707 
1032 208 565 552 628 
1033 501 603 534 620 
1034 163 140 207 573 
1035 510 645 535 668 
1036 388 577 539 638 
1037 551 553 500 662 
1038 493 592 558 633 
1039 259 281 540 608 
1040 117 549 116 637 
1041 493 522 578 592 
1042 420 617 382 671 
1043 192 585 522 686 
1044 498 549 524 630 
1045 248 553 597 600 
1046 561 579 516 670 
1047 552 565 208 675 
1048 507 556 546 683 
1049 181 561 201 579 
1050 518 613 474 709 
1051 553 597 600 672 
1052 503 665 653 679 
1053 166 523 187 573 
1054 445 564 588 701 
1055 519 665 497 684 
1056 523 644 534 661 
1057 307 310 535 596 
1058 520 669 144 691 
1059 498 551 519 655 
1060 270 595 575 624 
1061 509 539 647 679 
1062 580 601 133 699 
1063 215 633 585 658 
1064 531 533 509 652 
1065 192 167 585 686 
1066 557 607 570 696 
1067 179 223 183 563 
1068 445 613 564 701 
1069 117 113 549 584 
1070 443 469 627 643 
1071 236 256 585 686 
1072 226 541 261 697 
1073 524 684 601 689 
1074 528 498 655 657 
1075 522 585 256 686 
1076 545 548 501 659 
1077 520 494 580 599 
1078 333 397 363 566 
1079 500 666 545 695 
1080 524 601 530 630 
1081 493 542 705 710 
1082 106 105 129 567 
1083 599 677 566 679 
1084 280 575 591 624 
1085 435 423 436 541 
1086 515 561 496 642 
1087 506 618 617 671 
1088 509 533 539 679 
1089 535 645 307 707 
1090 347 336 335 596 
1091 509 539 531 647 
1092 252 561 591 670 
1093 334 535 307 707 
1094 307 535 334 596 
1095 225 189 206 628 
1096 289 250 568 600 
1097 126 537 583 704 
1098 584 637 529 657 
1099 504 595 567 624 
1100 518 572 594 613 
1101 402 539 374 640 
1102 117 113 116 549 
1103 229 262 258 540 
1104 291 277 600 698 
1105 553 567 497 600 
1106 158 520 144 691 
1107 347 299 336 526 
1108 335 596 336 649 
1109 526 490 541 660 
1110 155 118 612 682 
1111 432 435 459 582 
1112 505 526 614 706 
1113 564 687 505 706 
1114 307 334 310 596 
1115 504 553 551 662 
1116 134 574 629 699 
1117 448 572 486 613 
1118 440 542 469 643 
1119 345 636 669 699 
1120 338 623 596 696 
1121 184 583 579 676 
1122 260 259 261 582 
1123 497 517 574 589 
1124 524 580 115 593 
1125 298 231 332 568 
1126 475 565 521 605 
1127 524 494 580 593 
1128 544 589 513 656 
1129 221 204 208 552 
1130 508 584 529 657 
1131 526 596 490 706 
1132 334 596 535 707 
1133 273 522 256 686 
1134 251 567 553 600 
1135 400 610 572 635 
1136 545 666 527 695 
1137 328 518 329 694 
1138 504 567 553 624 
1139 454 627 648 681 
1140 465 429 478 526 
1141 332 231 267 568 
1142 224 631 210 670 
1143 491 529 637 657 
1144 497 551 553 672 
1145 511 524 593 688 
1146 247 559 281 608 
1147 496 545 642 662 
1148 496 545 662 703 
1149 189 206 628 678 
1150 500 553 551 672 
1151 291 692 277 698 
1152 309 308 307 616 
1153 508 529 584 626 
1154 158 144 520 650 
1155 129 574 517 693 
1156 536 505 687 706 
1157 523 617 506 618 
1158 323 308 544 616 
1159 534 632 603 661 
1160 510 535 532 668 
1161 499 527 548 651 
1162 197 98 163 529 
1163 615 664 571 671 
1164 227 105 93 567 
1165 520 650 389 691 
1166 124 583 537 584 
1167 457 634 522 686 
1168 111 112 110 630 
1169 183 201 181 561 
1170 515 619 239 658 
1171 304 305 294 540 
1172 247 281 559 697 
1173 528 653 533 663 
1174 526 660 614 706 
1175 422 556 403 610 
1176 506 603 534 606 
1177 519 497 551 684 
1178 535 544 503 700 
1179 508 587 579 667 
1180 491 606 547 618 
1181 282 262 229 604 
1182 528 655 653 663 
1183 388 539 402 638 
1184 493 542 578 705 
1185 280 270 575 624 
1186 197 147 98 626 
1187 537 579 508 583 
1188 623 673 596 696 
1189 187 573 523 644 
1190 362 385 408 573 
1191 178 587 175 620 
1192 388 373 539 647 
1193 166 190 185 523 
1194 533 503 652 653 
1195 508 579 537 609 
1196 328 518 694 711 
1197 173 552 620 632 
1198 261 541 281 697 
1199 359 170 161 571 
1200 535 503 623 700 
1201 323 589 325 616 
1202 462 576 484 635 
1203 337 589 544 656 
1204 493 633 558 659 
1205 430 467 401 572 
1206 524 580 494 689 
1207 535 490 596 673 
1208 280 575 254 591 
1209 214 592 192 633 
1210 375 531 399 610 
1211 531 594 399 610 
1212 112 524 114 630 
1213 517 324 589 698 
1214 359 392 170 571 
1215 110 598 530 630 
1216 501 587 563 620 
1217 569 611 512 622 
1218 126 537 124 583 
1219 513 550 636 689 
1220 376 556 379 586 
1221 380 547 377 586 
1222 93 227 567 595 
1223 315 550 312 590 
1224 514 648 627 681 
1225 126 598 537 680 
1226 437 436 622 654 
1227 446 443 554 588 
1228 384 612 638 639 
1229 494 539 533 679 
1230 148 134 574 629 
1231 532 551 497 672 
1232 115 524 112 601 
1233 512 705 542 710 
1234 515 619 561 642 
1235 385 523 365 573 
1236 563 579 181 587 
1237 508 579 609 667 
1238 561 619 496 642 
1239 511 638 612 639 
1240 347 299 526 707 
1241 557 673 623 696 
1242 517 589 568 698 
1243 493 543 695 710 
1244 138 530 108 625 
1245 561 563 496 579 
1246 464 614 476 649 
1247 547 586 502 640 
1248 188 166 187 573 
1249 237 236 256 585 
1250 462 484 576 605 
1251 499 542 538 643 
1252 488 474 613 709 
1253 204 208 552 628 
1254 210 201 224 670 
1255 516 583 537 704 
1256 491 528 555 657 
1257 494 533 539 688 
1258 252 561 257 658 
1259 310 309 535 623 
1260 271 543 602 611 
1261 490 608 559 668 
1262 555 508 609 667 
1263 376 556 586 640 
1264 252 591 561 619 
1265 531 539 502 640 
1266 554 605 588 683 
1267 256 585 522 602 
1268 105 227 263 567 
1269 500 562 642 662 
1270 569 622 512 654 
1271 549 584 113 630 
1272 519 653 528 655 
1273 503 557 652 673 
1274 310 309 307 535 
1275 513 574 601 699 
1276 269 562 242 641 
1277 427 460 232 569 
1278 213 197 529 626 
1279 115 112 133 601 
1280 493 548 545 659 
1281 596 673 490 706 
1282 596 649 335 696 
1283 506 571 664 671 
1284 345 669 94 699 
1285 537 680 575 704 
1286 528 655 555 657 
1287 494 665 550 679 
1288 631 670 516 676 
1289 499 588 554 643 
1290 409 422 403 610 
1291 574 589 513 684 
1292 252 619 561 658 
1293 500 553 597 641 
1294 289 568 250 604 
1295 513 544 656 665 
1296 174 175 202 534 
1297 388 373 402 539 
1298 323 544 337 589 
1299 123 529 98 626 
1300 555 545 667 703 
1301 146 122 133 580 
1302 516 254 591 670 
1303 375 372 399 531 
1304 311 557 314 590 
1305 139 124 537 584 
1306 489 653 655 663 
1307 506 632 603 664 
1308 474 431 694 709 
1309 448 444 462 588 
1310 269 242 245 641 
1311 444 446 462 588 
1312 577 593 494 688 
1313 522 634 192 686 
1314 553 624 562 662 
1315 213 626 529 690 
1316 382 618 586 671 
1317 311 557 590 623 
1318 115 118 114 593 
1319 399 594 531 646 
1320 516 631 254 670 
1321 562 591 241 619 
1322 197 163 213 529 
1323 499 536 687 706 
1324 338 557 623 696 
1325 572 594 412 709 
1326 111 108 138 530 
1327 259 262 281 608 
1328 372 399 531 646 
1329 666 668 527 695 
1330 501 563 558 620 
1331 139 537 126 598 
1332 558 592 514 675 
1333 604 608 540 645 
1334 440 542 643 654 
1335 372 531 375 640 
1336 312 590 550 700 
1337 191 192 167 585 
1338 340 299 326 582 
1339 471 459 429 582 
1340 271 275 288 602 
1341 376 610 556 640 
1342 215 195 585 633 
1343 518 594 581 607 
1344 603 620 552 632 
1345 122 580 146 699 
1346 517 589 324 693 
1347 387 389 577 650 
1348 540 582 326 707 
1349 506 617 523 661 
1350 522 592 192 634 
1351 496 561 591 619 
1352 592 648 514 675 
1353 97 264 130 575 
1354 173 552 176 620 
1355 131 362 525 639 
1356 320 669 520 691 
1357 333 363 300 566 
1358 462 484 485 635 
1359 372 375 374 640 
1360 443 440 469 643 
1361 244 559 247 597 
1362 402 374 377 640 
1363 243 543 271 611 
1364 251 277 567 600 
1365 324 692 517 693 
1366 421 382 420 617 
1367 442 588 564 643 
1368 265 232 460 569 
1369 324 517 692 698 
1370 454 648 453 681 
1371 380 383 547 618 
1372 521 615 393 702 
1373 399 594 400 610 
1374 569 611 602 710 
1375 101 144 669 691 
1376 223 563 179 633 
1377 494 539 577 688 
1378 139 584 537 598 
1379 509 531 646 647 
1380 337 544 309 700 
1381 491 637 549 657 
1382 252 591 254 670 
1383 397 566 333 621 
1384 344 335 649 696 
1385 569 654 512 705 
1386 409 610 400 635 
1387 253 241 562 591 
1388 112 115 114 524 
1389 497 589 574 684 
1390 496 591 562 619 
1391 207 187 163 573 
1392 543 500 642 695 
1393 215 585 162 658 
1394 238 228 585 658 
1395 111 110 108 530 
1396 323 308 337 544 
1397 517 692 129 693 
1398 253 562 269 624 
1399 497 574 530 684 
1400 497 665 544 684 
1401 546 560 502 663 
1402 524 112 601 630 
1403 504 591 575 624 
1404 404 385 365 573 
1405 393 678 521 702 
1406 440 441 538 643 
1407 253 591 562 624 
1408 109 598 126 680 
1409 264 575 270 595 
1410 551 666 500 672 
1411 323 589 337 656 
1412 364 430 401 572 
1413 411 361 461 576 
1414 399 412 400 594 
1415 113 114 549 630 
1416 391 594 581 711 
1417 222 561 183 658 
1418 244 611 559 641 
1419 543 500 562 642 
1420 446 444 443 588 
1421 326 526 299 707 
1422 271 543 240 602 
1423 181 579 182 587 
1424 532 666 551 672 
1425 245 553 249 624 
1426 537 583 508 584 
1427 254 280 230 575 
1428 403 556 376 610 
1429 147 123 98 626 
1430 325 323 324 589 
1431 108 530 110 598 
1432 113 114 116 549 
1433 271 602 288 611 
1434 310 596 338 623 
1435 477 426 198 648 
1436 441 438 440 538 
1437 259 540 262 608 
1438 585 633 515 658 
1439 474 488 431 709 
1440 547 586 380 618 
1441 438 436 654 660 
1442 291 235 277 692 
1443 316 550 318 636 
1444 158 121 144 650 
1445 569 705 512 710 
1446 448 486 572 635 
1447 537 609 496 708 
1448 438 441 468 538 
1449 459 478 429 526 
1450 579 583 516 676 
1451 292 569 275 602 
1452 549 637 584 657 
1453 448 486 451 613 
1454 508 584 583 626 
1455 440 538 438 654 
1456 560 606 502 663 
1457 319 636 629 656 
1458 337 308 309 544 
1459 442 443 588 643 
1460 441 468 538 660 
1461 253 241 591 619 
1462 440 643 538 654 
1463 368 389 650 691 
1464 277 263 251 567 
1465 389 674 520 691 
1466 579 587 563 667 
1467 508 587 534 690 
1468 289 268 250 600 
1469 457 434 634 686 
1470 267 332 568 604 
1471 312 311 590 700 
1472 373 374 402 539 
1473 126 583 125 704 
1474 318 550 315 599 
1475 318 316 315 550 
1476 442 445 564 588 
1477 362 383 525 639 
1478 313 315 312 590 
1479 490 660 526 706 
1480 530 598 504 708 
1481 438 538 468 660 
1482 550 599 318 636 
1483 500 668 666 695 
1484 515 543 619 642 
1485 493 695 527 710 
1486 550 590 315 677 
1487 454 627 578 648 
1488 178 563 181 587 
1489 311 623 590 700 
1490 425 484 576 635 
1491 120 525 157 637 
1492 494 550 665 689 
1493 270 278 595 624 
1494 505 596 526 706 
1495 346 424 466 570 
1496 121 122 144 580 
1497 244 559 597 641 
1498 251 553 248 600 
1499 518 328 607 711 
1500 520 674 320 691 
1501 566 677 509 679 
1502 198 165 428 565 
1503 467 401 572 635 
1504 571 617 396 671 
1505 558 563 501 659 
1506 379 586 556 671 
1507 114 116 549 682 
1508 139 584 598 630 
1509 267 231 289 568 
1510 171 617 571 632 
1511 114 118 132 682 
1512 384 612 386 638 
1513 444 442 443 588 
1514 139 124 126 537 
1515 526 582 540 707 
1516 213 529 644 690 
1517 459 478 526 660 
1518 581 621 331 685 
1519 395 393 615 702 
1520 342 599 566 674 
1521 501 552 603 620 
1522 514 592 578 648 
1523 325 568 324 698 
1524 557 357 607 696 
1525 276 559 244 611 
1526 192 585 195 633 
1527 220 592 558 675 
1528 347 326 299 707 
1529 356 621 566 677 
1530 543 562 500 641 
1531 513 629 574 699 
1532 575 595 504 624 
1533 452 564 445 613 
1534 359 571 161 617 
1535 438 654 538 660 
1536 158 650 520 691 
1537 564 614 442 643 
1538 629 636 513 656 
1539 377 376 586 640 
1540 441 538 614 660 
1541 591 624 504 662 
1542 121 115 580 593 
1543 369 358 293 581 
1544 383 381 380 547 
1545 493 602 543 710 
1546 420 382 415 671 
1547 456 578 627 705 
1548 242 543 243 641 
1549 298 231 568 698 
1550 369 293 327 581 
1551 179 183 181 563 
1552 365 385 407 523 
1553 184 201 210 579 
1554 504 598 530 625 
1555 230 264 97 575 
1556 496 609 579 667 
1557 425 485 484 635 
1558 439 542 440 654 
1559 148 135 134 629 
1560 516 676 583 704 
1561 212 479 634 648 
1562 247 597 559 608 
1563 475 449 565 605 
1564 463 442 564 614 
1565 475 605 521 702 
1566 168 210 631 676 
1567 95 137 410 639 
1568 100 413 137 612 
1569 425 461 361 576 
1570 307 535 616 645 
1571 572 610 507 635 
1572 570 607 357 696 
1573 161 571 171 617 
1574 550 665 503 679 
1575 568 604 325 616 
1576 376 379 378 586 
1577 139 113 584 630 
1578 463 445 452 564 
1579 469 627 542 705 
1580 428 477 198 565 
1581 495 607 557 652 
1582 391 412 594 709 
1583 186 174 202 534 
1584 253 241 269 562 
1585 453 426 477 648 
1586 246 250 248 597 
1587 162 237 228 585 
1588 310 535 596 623 
1589 511 525 639 682 
1590 127 676 631 704 
1591 396 571 359 617 
1592 271 240 238 602 
1593 452 474 570 613 
1594 157 154 131 525 
1595 381 377 547 638 
1596 562 619 543 642 
1597 148 629 574 693 
1598 391 594 518 709 
1599 214 192 195 633 
1600 563 642 496 667 
1601 457 455 578 634 
1602 109 139 126 598 
1603 314 557 357 607 
1604 245 248 553 597 
1605 542 512 654 705 
1606 248 251 249 553 
1607 187 523 185 644 
1608 154 131 525 639 
1609 498 584 537 609 
1610 447 554 443 627 
1611 180 558 220 592 
1612 512 611 569 710 
1613 345 636 297 669 
1614 378 380 377 586 
1615 563 659 642 667 
1616 331 581 293 621 
1617 330 357 570 607 
1618 358 621 581 646 
1619 391 518 594 711 
1620 288 243 271 611 
1621 243 240 271 543 
1622 106 93 105 567 
1623 312 311 313 590 
1624 490 673 536 706 
1625 566 621 390 647 
1626 496 579 563 667 
1627 227 278 567 595 
1628 155 612 639 682 
1629 460 569 458 622 
1630 379 556 422 615 
1631 537 584 498 598 
1632 489 551 666 703 
1633 130 575 595 680 
1634 134 629 135 699 
1635 395 615 576 702 
1636 611 622 266 697 
1637 293 581 358 621 
1638 496 619 562 642 
1639 489 655 551 703 
1640 172 617 171 632 
1641 513 636 580 689 
1642 148 574 129 693 
1643 494 550 599 679 
1644 436 459 541 660 
1645 186 534 202 690 
1646 343 669 320 691 
1647 115 133 122 580 
1648 462 450 484 605 
1649 100 413 612 650 
1650 224 168 210 631 
1651 456 627 469 705 
1652 440 439 469 542 
1653 409 361 576 635 
1654 120 154 157 525 
1655 122 669 580 699 
1656 362 383 385 525 
1657 390 566 389 674 
1658 225 565 208 628 
1659 445 444 448 588 
1660 407 421 523 618 
1661 397 390 566 621 
1662 377 376 378 586 
1663 426 159 198 648 
1664 296 424 346 570 
1665 162 191 237 585 
1666 461 411 576 702 
1667 238 585 256 602 
1668 314 590 557 685 
1669 215 195 162 585 
1670 108 530 598 625 
1671 498 598 530 708 
1672 458 569 457 705 
1673 123 119 98 529 
1674 370 581 391 594 
1675 149 583 196 676 
1676 196 149 160 583 
1677 484 450 487 702 
1678 243 242 240 543 
1679 588 687 683 701 
1680 430 486 467 572 
1681 534 603 506 661 
1682 280 270 264 575 
1683 314 357 349 607 
1684 515 642 563 659 
1685 565 605 449 681 
1686 325 568 332 604 
1687 400 572 401 635 
1688 212 159 479 648 
1689 513 589 574 629 
1690 311 338 557 623 
1691 289 267 568 604 
1692 179 181 178 563 
1693 499 683 588 687 
1694 320 599 520 669 
1695 175 178 202 587 
1696 167 49 237 236 
1697 366 169 42 170 
1698 513 636 629 699 
1699 446 443 447 554 
1700 306 325 604 616 
1701 505 614 564 706 
1702 319 629 636 699 
1703 456 457 578 705 
1704 581 607 328 711 
1705 460 265 569 622 
1706 492 615 556 664 
1707 621 677 355 685 
1708 333 566 356 621 
1709 446 605 554 681 
1710 457 458 427 569 
1711 348 629 99 693 
1712 631 676 516 704 
1713 97 18 130 264 
1714 126 124 125 583 
1715 328 327 581 711 
1716 311 314 313 590 
1717 490 538 660 706 
1718 170 42 366 392 
1719 550 636 316 656 
1720 511 638 547 688 
1721 467 430 401 88 
1722 359 170 41 161 
1723 391 581 370 711 
1724 537 584 508 609 
1725 228 238 239 658 
1726 546 683 687 701 
1727 380 381 377 547 
1728 505 649 596 696 
1729 200 222 183 658 
1730 326 304 540 707 
1731 518 391 709 711 
1732 209 558 177 620 
1733 347 526 596 707 
1734 392 170 41 359 
1735 320 520 599 674 
1736 382 378 586 618 
1737 397 363 60 333 
1738 530 598 498 630 
1739 147 160 96 626 
1740 220 558 209 675 
1741 495 564 613 701 
1742 442 444 445 588 
1743 450 462 446 605 
1744 393 571 396 615 
1745 122 144 580 669 
1746 441 614 468 660 
1747 204 552 173 632 
1748 186 644 534 690 
1749 244 247 246 597 
1750 514 565 552 675 
1751 558 592 180 633 
1752 527 695 512 710 
1753 213 203 626 690 
1754 289 250 267 604 
1755 312 315 316 550 
1756 220 648 592 675 
1757 434 457 473 686 
1758 237 191 49 167 
1759 357 557 338 696 
1760 419 404 188 573 
1761 538 643 542 654 
1762 276 247 559 697 
1763 555 655 498 657 
1764 516 591 561 670 
1765 420 396 617 671 
1766 299 81 465 429 
1767 333 300 356 566 
1768 331 621 355 685 
1769 99 629 148 693 
1770 578 627 514 648 
1771 328 581 331 607 
1772 305 540 304 707 
1773 200 257 46 164 
1774 196 583 184 676 
1775 476 570 424 649 
1776 119 145 529 637 
1777 162 585 228 658 
1778 247 287 281 697 
1779 193 192 634 686 
1780 187 166 185 523 
1781 356 355 621 677 
1782 537 126 680 704 
1783 95 410 131 639 
1784 130 128 575 680 
1785 323 321 589 656 
1786 149 96 160 583 
1787 363 566 390 674 
1788 311 338 314 557 
1789 497 553 600 672 
1790 586 618 506 671 
1791 379 376 403 556 
1792 180 220 214 592 
1793 589 629 513 656 
1794 392 396 393 571 
1795 435 436 459 541 
1796 137 413 360 612 
1797 158 144 101 691 
1798 345 297 94 669 
1799 421 365 407 523 
1800 118 155 132 682 
1801 422 576 395 615 
1802 170 189 171 571 
1803 269 245 249 624 
1804 298 53 332 231 
1805 348 135 99 629 
1806 247 244 276 559 
1807 511 593 577 688 
1808 336 81 465 299 
1809 523 185 644 661 
1810 379 422 414 615 
1811 180 177 209 558 
1812 122 121 115 580 
1813 141 129 692 693 
1814 437 460 458 622 
1815 180 209 220 558 
1816 177 178 175 620 
1817 295 135 348 629 
1818 318 636 599 669 
1819 130 575 264 595 
1820 401 400 412 572 
1821 520 593 577 650 
1822 258 262 259 540 
1823 546 651 499 683 
1824 189 171 571 628 
1825 267 332 53 231 
1826 513 601 580 699 
1827 275 569 265 622 
1828 492 605 554 683 
1829 175 173 176 620 
1830 503 653 533 679 
1831 94 669 122 699 
1832 312 550 316 700 
1833 172 161 171 617 
1834 321 319 629 656 
1835 425 576 361 635 
1836 327 331 328 581 
1837 520 599 580 669 
1838 454 578 455 648 
1839 518 709 694 711 
1840 214 180 592 633 
1841 306 325 332 604 
1842 182 181 184 579 
1843 147 197 160 626 
1844 550 315 599 677 
1845 499 536 651 687 
1846 504 624 553 662 
1847 355 331 293 621 
1848 484 461 425 576 
1849 188 218 419 573 
1850 419 218 151 573 
1851 328 694 301 711 
1852 413 100 142 650 
1853 420 396 359 617 
1854 387 389 388 577 
1855 694 709 391 711 
1856 198 208 165 565 
1857 513 665 550 689 
1858 371 390 621 647 
1859 510 608 604 645 
1860 93 107 595 625 
1861 246 597 247 608 
1862 350 355 677 685 
1863 379 403 422 556 
1864 314 338 357 557 
1865 183 222 201 561 
1866 228 162 48 237 
1867 176 173 204 552 
1868 439 469 542 705 
1869 315 590 313 677 
1870 211 583 160 626 
1871 154 525 120 682 
1872 532 500 666 672 
1873 324 303 692 693 
1874 564 588 499 643 
1875 430 572 364 709 
1876 498 584 549 630 
1877 320 674 339 691 
1878 148 138 129 574 
1879 499 546 683 687 
1880 323 325 308 616 
1881 502 586 556 640 
1882 468 614 464 660 
1883 251 227 278 567 
1884 343 101 669 691 
1885 160 583 96 626 
1886 498 584 609 657 
1887 338 596 335 696 
1888 97 230 18 264 
1889 161 170 171 571 
1890 378 586 379 671 
1891 232 427 74 460 
1892 241 242 269 562 
1893 557 652 607 685 
1894 117 139 113 584 
1895 498 598 584 630 
1896 363 390 389 674 
1897 207 151 218 573 
1898 306 604 294 645 
1899 508 555 609 657 
1900 202 534 587 690 
1901 456 457 455 578 
1902 583 676 125 704 
1903 512 622 611 697 
1904 397 371 390 621 
1905 455 634 479 648 
1906 145 98 119 529 
1907 160 211 184 583 
1908 464 476 465 649 
1909 394 678 393 702 
1910 342 356 300 566 
1911 358 581 370 646 
1912 376 375 610 640 
1913 130 595 107 680 
1914 124 117 123 584 
1915 446 554 447 681 
1916 356 566 342 677 
1917 502 586 547 606 
1918 531 610 375 640 
1919 386 612 577 638 
1920 191 48 162 237 
1921 120 157 145 637 
1922 496 562 591 662 
1923 210 196 184 676 
1924 445 448 451 613 
1925 364 401 430 88 
1926 165 208 225 565 
1927 295 345 26 699 
1928 363 300 566 674 
1929 499 554 588 683 
1930 397 390 363 566 
1931 498 549 584 657 
1932 542 627 578 705 
1933 342 320 599 674 
1934 232 275 292 569 
1935 456 578 454 627 
1936 446 449 605 681 
1937 451 486 488 709 
1938 508 529 626 690 
1939 321 629 589 656 
1940 34 131 95 410 
1941 361 422 409 576 
1942 356 317 355 677 
1943 292 275 271 602 
1944 410 95 33 137 
1945 368 389 387 650 
1946 533 652 503 679 
1947 342 566 300 674 
1948 245 244 597 641 
1949 550 656 316 700 
1950 442 445 463 564 
1951 506 586 606 618 
1952 234 286 302 582 
1953 379 556 615 671 
1954 404 38 188 166 
1955 257 46 164 233 
1956 509 677 621 685 
1957 298 332 325 568 
1958 100 32 137 413 
1959 314 557 607 685 
1960 380 586 378 618 
1961 264 270 278 595 
1962 437 436 423 622 
1963 563 587 501 667 
1964 245 248 249 553 
1965 427 73 273 232 
1966 578 634 455 648 
1967 151 408 419 573 
1968 499 588 564 687 
1969 344 335 336 649 
1970 454 426 453 648 
1971 325 298 568 698 
1972 359 396 392 571 
1973 466 452 474 570 
1974 426 479 159 648 
1975 546 507 683 701 
1976 190 166 39 398 
1977 204 628 552 632 
1978 172 190 617 661 
1979 297 136 94 669 
1980 265 275 232 569 
1981 342 566 599 677 
1982 320 318 599 669 
1983 212 634 194 648 
1984 451 488 613 709 
1985 414 422 395 615 
1986 476 452 424 570 
1987 599 636 580 669 
1988 581 594 518 711 
1989 260 279 77 432 
1990 276 287 247 697 
1991 293 62 358 369 
1992 503 590 550 679 
1993 535 510 616 645 
1994 293 62 369 327 
1995 99 135 148 629 
1996 545 659 501 667 
1997 323 337 321 656 
1998 263 227 251 567 
1999 330 349 357 607 
2000 413 142 368 650 
2001 358 371 621 646 
2002 433 487 475 702 
2003 131 410 362 639 
2004 524 601 580 689 
2005 108 598 109 625 
2006 387 577 386 612 
2007 207 140 151 573 
2008 525 637 120 682 
2009 56 234 302 304 
2010 192 592 194 634 
2011 518 594 572 709 
2012 508 609 584 657 
2013 234 56 258 304 
2014 547 606 586 618 
2015 74 265 232 460 
2016 505 673 596 706 
2017 496 662 609 703 
2018 286 432 482 582 
2019 353 302 286 582 
2020 300 60 363 333 
2021 387 612 413 650 
2022 498 537 598 708 
2023 502 556 586 664 
2024 598 625 504 680 
2025 201 561 222 670 
2026 498 609 537 708 
2027 139 598 110 630 
2028 557 590 503 652 
2029 503 590 557 623 
2030 198 477 68 426 
2031 154 639 525 682 
2032 441 442 614 643 
2033 255 254 631 670 
2034 155 612 137 639 
2035 478 468 464 660 
2036 155 137 95 639 
2037 558 633 563 659 
2038 441 614 538 643 
2039 328 329 301 694 
2040 577 612 511 638 
2041 428 565 449 681 
2042 467 572 486 635 
2043 73 273 473 427 
2044 511 639 612 682 
2045 576 615 521 702 
2046 305 645 540 707 
2047 142 368 650 691 
2048 403 376 375 610 
2049 76 226 423 279 
2050 550 677 599 679 
2051 94 26 345 699 
2052 313 590 314 685 
2053 609 703 662 708 
2054 209 558 620 675 
2055 196 160 184 583 
2056 130 107 128 680 
2057 331 327 293 581 
2058 253 591 252 619 
2059 458 460 427 569 
2060 335 338 310 596 
2061 360 410 33 137 
2062 244 243 611 641 
2063 503 535 623 673 
2064 500 597 559 641 
2065 551 703 498 708 
2066 603 632 506 661 
2067 248 250 268 600 
2068 235 102 21 263 
2069 550 590 503 700 
2070 501 659 563 667 
2071 475 449 428 565 
2072 128 97 575 704 
2073 198 159 199 648 
2074 307 616 306 645 
2075 103 145 157 573 
2076 32 360 137 413 
2077 290 246 247 608 
2078 325 324 298 698 
2079 435 77 279 432 
2080 580 669 636 699 
2081 204 221 176 552 
2082 353 482 340 582 
2083 117 116 119 637 
2084 495 546 687 701 
2085 109 625 598 680 
2086 291 600 268 698 
2087 559 611 276 697 
2088 369 370 581 711 
2089 577 612 387 650 
2090 317 350 355 677 
2091 295 26 135 699 
2092 329 84 466 346 
2093 286 260 432 582 
2094 426 455 479 648 
2095 555 609 498 703 
2096 148 134 138 574 
2097 563 633 515 659 
2098 322 324 589 693 
2099 580 601 513 689 
2100 204 225 208 628 
2101 555 498 655 703 
2102 386 577 388 638 
2103 479 212 69 159 
2104 489 666 545 703 
2105 343 320 339 691 
2106 326 305 304 707 
2107 324 692 341 698 
2108 551 655 498 703 
2109 291 277 268 600 
2110 502 606 560 664 
2111 139 110 113 630 
2112 238 228 237 585 
2113 275 265 266 622 
2114 286 482 353 582 
2115 545 642 659 667 
2116 289 568 231 698 
2117 127 104 631 676 
2118 319 295 629 699 
2119 252 253 254 591 
2120 55 304 294 229 
2121 340 482 471 582 
2122 246 245 244 597 
2123 93 106 107 625 
2124 245 246 248 597 
2125 513 636 550 656 
2126 441 464 468 614 
2127 500 532 668 672 
2128 221 176 552 675 
2129 12 147 160 96 
2130 500 532 666 668 
2131 435 76 423 279 
2132 375 399 400 610 
2133 571 617 506 632 
2134 503 544 665 700 
2135 454 455 426 648 
2136 426 68 198 159 
2137 486 572 430 709 
2138 391 367 694 711 
2139 424 570 296 649 
2140 172 617 632 661 
2141 500 559 597 668 
2142 171 571 628 632 
2143 181 201 184 579 
2144 261 281 287 697 
2145 114 132 116 682 
2146 581 594 370 646 
2147 103 408 151 573 
2148 609 662 496 708 
2149 116 637 549 682 
2150 296 570 357 696 
2151 463 441 442 614 
2152 304 55 258 229 
2153 543 611 243 641 
2154 438 468 436 660 
2155 405 391 694 709 
2156 305 306 294 645 
2157 105 21 102 263 
2158 276 244 243 611 
2159 492 560 603 664 
2160 295 25 348 135 
2161 137 156 100 612 
2162 574 601 530 684 
2163 513 601 574 684 
2164 131 34 362 410 
2165 330 296 346 570 
2166 97 130 128 575 
2167 420 398 421 617 
2168 322 589 321 629 
2169 100 612 156 650 
2170 331 607 581 685 
2171 227 105 20 93 
2172 223 179 180 633 
2173 500 597 553 672 
2174 272 692 291 698 
2175 456 454 469 627 
2176 38 404 365 166 
2177 429 80 471 340 
2178 333 356 355 621 
2179 147 197 12 160 
2180 296 330 357 570 
2181 500 641 559 695 
2182 447 554 627 681 
2183 411 395 576 702 
2184 238 256 271 602 
2185 500 559 668 695 
2186 556 664 615 671 
2187 496 667 545 703 
2188 327 369 581 711 
2189 396 414 615 671 
2190 379 615 414 671 
2191 234 259 260 582 
2192 566 599 520 674 
2193 360 413 387 612 
2194 94 135 26 699 
2195 489 555 655 703 
2196 17 230 97 143 
2197 562 624 591 662 
2198 295 135 629 699 
2199 186 644 185 661 
2200 596 673 505 696 
2201 545 496 642 667 
2202 289 291 268 698 
2203 362 408 35 131 
2204 165 470 206 66 
2205 503 665 550 700 
2206 409 400 401 635 
2207 208 199 221 675 
2208 396 615 571 671 
2209 372 371 646 647 
2210 568 600 517 698 
2211 297 636 318 669 
2212 147 96 123 626 
2213 518 607 581 711 
2214 574 589 517 693 
2215 118 593 156 612 
2216 614 660 538 706 
2217 83 466 346 424 
2218 566 621 509 677 
2219 503 652 590 679 
2220 510 668 532 672 
2221 205 631 224 670 
2222 194 634 592 648 
2223 533 509 652 679 
2224 505 536 673 706 
2225 172 185 190 661 
2226 113 112 114 630 
2227 313 350 317 677 
2228 237 256 238 585 
2229 159 212 194 648 
2230 66 165 470 428 
2231 166 365 39 398 
2232 567 595 504 625 
2233 498 609 555 657 
2234 319 345 295 699 
2235 590 623 503 700 
2236 138 108 106 625 
2237 380 407 383 618 
2238 503 623 557 673 
2239 369 391 370 711 
2240 486 430 488 709 
2241 451 488 474 613 
2242 472 694 431 709 
2243 510 604 568 616 
2244 509 621 581 685 
2245 142 650 158 691 
2246 561 619 515 658 
2247 149 125 583 676 
2248 506 617 571 671 
2249 577 593 511 612 
2250 504 598 680 708 
2251 267 250 282 604 
2252 136 297 28 669 
2253 171 628 204 632 
2254 213 644 186 690 
2255 500 543 641 695 
2256 94 136 122 669 
2257 255 205 45 670 
2258 178 181 182 587 
2259 263 105 20 227 
2260 213 203 197 626 
2261 80 429 299 340 
2262 405 391 367 694 
2263 546 651 560 663 
2264 25 99 348 135 
2265 512 559 611 695 
2266 102 141 129 692 
2267 408 103 35 131 
2268 319 316 636 656 
2269 496 642 562 662 
2270 358 370 371 646 
2271 176 620 552 675 
2272 509 621 566 647 
2273 187 207 188 573 
2274 230 17 274 143 
2275 511 577 638 688 
2276 133 112 111 601 
2277 572 613 518 709 
2278 332 54 294 604 
2279 381 402 377 638 
2280 411 395 361 576 
2281 439 542 654 705 
2282 296 83 346 424 
2283 199 648 220 675 
2284 19 93 130 595 
2285 272 235 291 692 
2286 498 703 609 708 
2287 448 485 486 635 
2288 324 303 341 692 
2289 602 611 543 710 
2290 581 621 509 646 
2291 337 656 544 700 
2292 311 309 623 700 
2293 413 100 31 142 
2294 340 326 302 582 
2295 471 432 459 582 
2296 396 379 414 671 
2297 200 183 215 658 
2298 306 616 604 645 
2299 564 687 588 701 
2300 319 636 345 699 
2301 412 364 401 572 
2302 84 431 329 466 
2303 332 267 54 604 
2304 489 560 651 663 
2305 191 162 195 585 
2306 297 343 28 669 
2307 211 626 203 690 
2308 389 406 674 691 
2309 195 192 191 585 
2310 94 345 27 297 
2311 472 431 488 709 
2312 202 587 182 690 
2313 211 203 182 690 
2314 439 456 469 705 
2315 372 373 371 647 
2316 504 662 551 708 
2317 395 393 414 615 
2318 342 599 315 677 
2319 384 386 381 638 
2320 149 125 96 583 
2321 128 127 97 704 
2322 280 254 253 591 
2323 557 505 673 696 
2324 154 95 131 639 
2325 206 189 169 678 
2326 461 576 484 702 
2327 156 612 593 650 
2328 236 273 256 686 
2329 297 27 94 136 
2330 426 479 69 159 
2331 578 592 522 634 
2332 255 254 274 631 
2333 219 434 480 686 
2334 40 161 190 617 
2335 45 205 164 670 
2336 40 190 398 617 
2337 132 155 639 682 
2338 314 607 349 685 
2339 322 323 321 589 
2340 270 253 269 624 
2341 588 683 507 701 
2342 253 252 241 619 
2343 370 594 399 646 
2344 19 227 93 595 
2345 453 428 449 681 
2346 412 364 572 709 
2347 224 205 168 631 
2348 174 186 185 661 
2349 349 607 331 685 
2350 487 461 484 702 
2351 103 140 145 573 
2352 554 514 627 681 
2353 139 117 124 584 
2354 127 104 143 631 
2355 504 595 575 680 
2356 320 297 318 669 
2357 362 384 383 639 
2358 386 388 402 638 
2359 323 322 324 589 
2360 194 592 220 648 
2361 311 312 309 700 
2362 394 366 393 678 
2363 193 167 192 686 
2364 328 349 330 607 
2365 436 437 438 654 
2366 108 110 109 598 
2367 499 651 546 687 
2368 229 294 54 604 
2369 512 611 559 697 
2370 266 622 226 697 
2371 539 638 577 688 
2372 408 404 419 573 
2373 580 636 513 699 
2374 255 631 205 670 
2375 369 370 358 581 
2376 447 443 469 627 
2377 252 254 233 670 
2378 662 703 551 708 
2379 19 130 264 595 
2380 116 120 637 682 
2381 230 280 264 575 
2382 303 24 141 693 
2383 192 214 194 592 
2384 160 149 13 96 
2385 256 292 271 602 
2386 333 61 397 621 
2387 387 386 360 612 
2388 226 261 287 697 
2389 384 360 612 639 
2390 359 161 40 617 
2391 384 360 386 612 
2392 240 241 239 619 
2393 303 348 24 693 
2394 388 390 373 647 
2395 61 358 397 621 
2396 466 424 452 570 
2397 557 590 652 685 
2398 296 649 570 696 
2399 502 586 606 664 
2400 317 315 313 677 
2401 132 155 154 639 
2402 513 656 550 665 
2403 311 310 338 623 
2404 521 605 576 702 
2405 322 589 629 693 
2406 378 379 415 671 
2407 559 641 611 695 
2408 382 380 378 618 
2409 217 150 168 631 
2410 154 132 639 682 
2411 338 335 344 696 
2412 425 361 89 635 
2413 218 188 207 573 
2414 395 422 361 576 
2415 560 606 603 664 
2416 213 186 203 690 
2417 621 646 371 647 
2418 394 393 395 702 
2419 559 608 597 668 
2420 24 99 141 693 
2421 303 141 692 693 
2422 337 316 656 700 
2423 31 413 142 368 
2424 399 370 391 594 
2425 535 596 623 673 
2426 416 354 339 691 
2427 293 358 61 621 
2428 193 434 219 686 
2429 313 314 350 685 
2430 450 446 449 605 
2431 99 24 348 693 
2432 416 339 406 691 
2433 229 54 267 604 
2434 597 608 510 668 
2435 347 596 334 707 
2436 107 625 109 680 
2437 570 649 505 696 
2438 40 398 359 617 
2439 307 308 306 616 
2440 322 629 348 693 
2441 467 486 485 635 
2442 193 192 194 634 
2443 506 632 617 661 
2444 116 132 120 682 
2445 495 687 564 701 
2446 603 606 506 664 
2447 537 680 598 708 
2448 556 586 664 671 
2449 349 328 331 607 
2450 337 312 316 700 
2451 447 627 454 681 
2452 13 196 149 160 
2453 193 634 434 686 
2454 387 388 386 577 
2455 108 109 107 625 
2456 333 293 61 621 
2457 449 446 447 681 
2458 455 454 456 578 
2459 168 150 104 631 
2460 289 231 291 698 
2461 467 425 89 635 
2462 276 611 266 697 
2463 251 268 277 600 
2464 125 676 127 704 
2465 19 264 227 595 
2466 479 70 212 634 
2467 393 396 414 615 
2468 171 204 173 632 
2469 94 122 146 699 
2470 480 473 283 686 
2471 500 668 597 672 
2472 574 629 589 693 
2473 592 634 578 648 
2474 391 412 399 594 
2475 314 349 331 685 
2476 335 310 334 596 
2477 347 335 334 596 
2478 146 134 135 699 
2479 436 468 459 660 
2480 590 677 509 685 
2481 473 273 283 686 
2482 182 202 178 587 
2483 286 234 260 582 
2484 140 103 151 573 
2485 385 404 408 573 
2486 107 595 625 680 
2487 342 300 320 674 
2488 483 352 85 694 
2489 295 321 319 629 
2490 172 632 173 661 
2491 99 148 129 693 
2492 140 10 98 163 
2493 255 45 233 670 
2494 339 674 406 691 
2495 345 319 297 636 
2496 155 118 156 612 
2497 329 85 352 694 
2498 155 95 154 639 
2499 124 96 125 583 
2500 470 216 481 678 
2501 413 368 387 650 
2502 389 368 406 691 
2503 134 133 111 601 
2504 142 100 158 650 
2505 255 285 205 631 
2506 420 415 396 671 
2507 423 226 75 622 
2508 205 285 217 631 
2509 70 193 212 634 
2510 384 410 360 639 
2511 128 575 680 704 
2512 215 223 195 633 
2513 150 168 15 217 
2514 340 302 353 582 
2515 471 482 432 582 
2516 187 185 186 644 
2517 71 480 219 434 
2518 452 451 474 613 
2519 550 590 677 679 
2520 141 99 129 693 
2521 460 423 75 622 
2522 483 85 431 694 
2523 128 680 126 704 
2524 206 216 470 678 
2525 412 391 364 709 
2526 439 440 438 654 
2527 156 593 121 650 
2528 352 367 301 694 
2529 318 315 342 599 
2530 509 646 621 647 
2531 322 295 348 629 
2532 319 321 316 656 
2533 168 631 104 676 
2534 45 164 233 670 
2535 450 449 475 605 
2536 496 609 667 703 
2537 307 306 305 645 
2538 43 169 366 678 
2539 209 620 176 675 
2540 604 616 510 645 
2541 10 140 207 163 
2542 350 331 355 685 
2543 329 431 85 694 
2544 465 82 336 649 
2545 509 652 590 685 
2546 268 251 248 600 
2547 282 290 262 608 
2548 401 467 89 635 
2549 278 270 249 624 
2550 372 370 399 646 
2551 101 144 136 669 
2552 152 102 284 692 
2553 611 641 543 695 
2554 104 168 15 150 
2555 266 226 287 697 
2556 235 284 102 692 
2557 236 167 50 686 
2558 352 418 367 694 
2559 89 361 401 635 
2560 476 464 463 614 
2561 417 394 433 678 
2562 416 354 58 339 
2563 234 286 57 302 
2564 301 64 367 352 
2565 417 433 481 678 
2566 341 351 272 692 
2567 257 200 47 658 
2568 201 222 224 670 
2569 137 155 156 612 
2570 143 150 274 631 
2571 451 452 445 613 
2572 188 419 37 404 
2573 193 71 219 434 
2574 172 173 174 661 
2575 406 416 58 339 
2576 262 247 281 608 
2577 274 150 285 631 
2578 142 158 101 691 
2579 342 315 317 677 
2580 284 272 351 692 
2581 265 460 75 622 
2582 504 625 595 680 
2583 459 468 478 660 
2584 310 311 309 623 
2585 506 606 586 664 
2586 472 418 483 694 
2587 122 136 144 669 
2588 593 612 577 650 
2589 168 14 196 676 
2590 601 684 513 689 
2591 43 366 417 678 
2592 113 110 112 630 
2593 168 104 14 676 
2594 479 434 70 634 
2595 343 297 320 669 
2596 354 153 343 691 
2597 43 216 169 678 
2598 257 47 228 658 
2599 407 382 421 618 
2600 159 194 220 648 
2601 405 418 472 694 
2602 411 461 91 702 
2603 343 153 101 691 
2604 286 353 57 302 
2605 418 367 64 352 
2606 447 454 453 681 
2607 70 434 193 634 
2608 107 130 93 595 
2609 400 409 403 610 
2610 296 344 649 696 
2611 118 115 121 593 
2612 341 692 272 698 
2613 167 219 50 686 
2614 141 351 303 692 
2615 75 226 265 622 
2616 480 434 473 686 
2617 218 419 37 188 
2618 510 597 668 672 
2619 506 664 586 671 
2620 245 242 244 641 
2621 394 433 678 702 
2622 455 457 434 634 
2623 50 283 236 686 
2624 356 342 317 677 
2625 171 173 172 632 
2626 47 162 228 658 
2627 154 120 132 682 
2628 550 665 656 700 
2629 656 665 544 700 
2630 159 220 199 648 
2631 424 296 82 649 
2632 351 141 152 692 
2633 202 182 203 690 
2634 306 332 294 604 
2635 319 316 318 636 
2636 149 196 14 676 
2637 375 376 374 640 
2638 128 109 126 680 
2639 288 266 276 611 
2640 308 325 306 616 
2641 43 417 216 678 
2642 377 374 376 640 
2643 186 202 203 690 
2644 442 440 443 643 
2645 187 186 213 644 
2646 555 667 609 703 
2647 440 442 441 643 
2648 190 161 172 617 
2649 197 211 160 626 
2650 301 694 367 711 
2651 189 204 171 628 
2652 509 677 590 679 
2653 255 233 254 670 
2654 87 472 430 709 
2655 121 156 118 593 
2656 460 437 423 622 
2657 52 341 272 698 
2658 217 205 44 285 
2659 483 472 86 418 
2660 272 51 284 351 
2661 231 298 52 698 
2662 51 272 341 351 
2663 343 339 354 691 
2664 205 255 44 285 
2665 590 652 509 679 
2666 224 222 164 670 
2667 231 52 272 698 
2668 665 684 519 689 
2669 513 684 665 689 
2670 465 424 82 649 
2671 296 336 82 649 
2672 149 14 104 676 
2673 203 211 197 626 
2674 456 458 457 705 
2675 102 22 152 284 
2676 50 219 283 686 
2677 227 264 278 595 
2678 221 209 176 675 
2679 303 324 322 693 
2680 297 319 318 636 
2681 22 102 235 284 
2682 353 79 340 482 
2683 16 274 143 150 
2684 339 59 406 674 
2685 472 405 694 709 
2686 110 139 109 598 
2687 472 405 86 418 
2688 472 87 405 709 
2689 151 218 9 207 
2690 150 16 274 285 
2691 47 200 162 658 
2692 260 78 286 432 
2693 397 358 371 621 
2694 394 411 91 702 
2695 78 482 286 432 
2696 337 309 312 700 
2697 409 401 361 635 
2698 320 318 342 599 
2699 473 480 283 72 
2700 512 695 611 710 
2701 471 340 79 482 
2702 296 357 344 696 
2703 228 239 257 658 
2704 87 430 364 709 
2705 301 367 63 711 
2706 298 341 52 698 
2707 214 195 180 633 
2708 273 473 283 72 
2709 287 276 266 697 
2710 194 214 220 592 
2711 125 104 127 676 
2712 168 196 210 676 
2713 481 470 65 216 
2714 209 177 176 620 
2715 327 301 63 711 
2716 153 30 142 691 
2717 140 151 9 207 
2718 81 465 82 336 
2719 470 206 65 216 
2720 59 363 406 674 
2721 295 322 321 629 
2722 141 351 23 303 
2723 351 23 152 141 
2724 363 59 300 674 
2725 244 242 243 641 
2726 265 226 266 622 
2727 415 379 396 671 
2728 92 394 433 417 
2729 176 177 175 620 
2730 282 229 267 604 
2731 481 92 433 417 
2732 327 63 369 711 
2733 36 419 151 408 
2734 269 249 270 624 
2735 461 433 91 702 
2736 441 463 464 614 
2737 125 127 126 704 
2738 394 91 433 702 
2739 217 285 150 631 
2740 119 120 145 637 
2741 362 410 384 639 
2742 153 416 30 691 
2743 339 300 59 674 
2744 191 49 48 237 
2745 46 47 257 200 
2746 41 42 170 392 
2747 371 373 390 647 
2748 405 364 391 709 
2749 407 380 382 618 
2750 403 375 400 610 
2751 467 485 425 635 
2752 364 405 87 709 
2753 158 156 121 650 
2754 332 53 54 267 
2755 320 300 339 674 
2756 120 119 116 637 
2757 328 301 327 711 
2758 241 252 239 619 
2759 470 481 433 678 
2760 225 204 189 628 
2761 417 481 216 678 
2762 50 49 167 236 
2763 169 42 43 366 
2764 465 476 424 649 
2765 416 153 354 691 
2766 350 314 331 685 
2767 431 329 85 84 
2768 344 336 296 649 
2769 334 305 326 707 
2770 219 480 283 686 
2771 143 104 150 631 
2772 354 29 343 153 
2773 469 454 447 627 
2774 247 262 290 608 
2775 29 101 343 153 
2776 158 100 156 650 
2777 363 389 406 674 
2778 360 33 32 137 
2779 324 341 298 698 
2780 226 423 75 76 
2781 103 36 151 408 
2782 63 301 64 367 
2783 234 57 56 302 
2784 611 695 543 710 
2785 401 467 88 89 
2786 438 437 439 654 
2787 194 212 193 634 
2788 108 107 106 625 
2789 89 425 90 361 
2790 18 19 130 264 
2791 411 394 395 702 
2792 63 367 369 711 
2793 199 220 209 675 
2794 190 39 40 398 
2795 35 34 362 131 
2796 102 21 22 235 
2797 168 15 14 104 
2798 369 367 391 711 
2799 60 61 397 333 
2800 107 109 128 680 
2801 243 288 276 611 
2802 164 205 224 670 
2803 386 402 381 638 
2804 232 427 73 74 
2805 82 83 296 424 
2806 28 27 297 136 
2807 205 217 168 631 
2808 70 71 193 434 
2809 41 40 359 161 
2810 260 77 78 432 
2811 284 351 152 692 
2812 341 303 351 692 
2813 37 38 188 404 
2814 359 398 420 617 
2815 128 126 127 704 
2816 61 293 62 358 
2817 329 352 301 694 
2818 483 418 352 694 
2819 162 48 47 228 
2820 26 25 295 135 
2821 439 458 456 705 
2822 146 135 94 699 
2823 52 53 298 231 
2824 54 55 294 229 
2825 426 69 68 159 
2826 67 165 66 428 
2827 316 321 337 656 
2828 333 355 293 621 
2829 162 200 215 658 
2830 258 56 55 304 
2831 174 185 172 661 
2832 72 273 473 73 
2833 63 369 62 327 
2834 180 195 223 633 
2835 58 59 406 339 
2836 371 370 372 646 
2837 59 60 363 300 
2838 227 20 19 93 
2839 7 353 286 482 
2840 283 219 6 480 
2841 8 483 418 352 
2842 417 481 5 216 
2843 3 152 284 351 
2844 2 150 217 285 
2845 4 354 416 153 
2846 218 1 419 151 
2847 230 18 17 97 
2848 455 434 479 634 
2849 91 92 394 433 
2850 272 284 235 692 
2851 348 303 322 693 
2852 460 74 265 75 
2853 429 299 81 80 
2854 472 483 431 694 
2855 430 87 364 88 
2856 347 334 326 707 
2857 274 285 255 631 
2858 274 17 16 143 
2859 461 90 411 91 
2860 80 471 340 79 
2861 417 366 394 678 
2862 23 24 141 303 
2863 255 44 45 205 
2864 98 10 11 163 
2865 167 193 219 686 
2866 149 104 125 676 
2867 46 45 164 233 
2868 160 13 12 96 
2869 368 416 406 691 
2870 105 20 21 263 
2871 39 38 365 166 
2872 52 51 272 341 
2873 102 152 141 692 
2874 405 367 418 694 
2875 206 169 216 678 
2876 142 30 31 368 
2877 86 405 472 87 
2878 283 273 236 686 
2879 28 29 101 343 
2880 65 206 470 66 
2881 453 449 447 681 
2882 84 466 346 83 
2883 231 272 291 698 
2884 488 430 472 709 
2885 101 153 142 691 
2886 95 33 34 410 
2887 12 11 197 147 
2888 344 357 338 696 
2889 199 209 221 675 
2890 353 7 79 482 
2891 284 51 3 351 
2892 483 86 8 418 
2893 150 2 16 285 
2894 44 2 217 285 
2895 9 1 218 151 
2896 418 64 8 352 
2897 353 57 7 286 
2898 219 6 50 283 
2899 417 5 43 216 
2900 354 58 4 416 
2901 419 1 36 151 
2902 419 37 1 218 
2903 140 9 10 207 
2904 487 433 461 702 
2905 76 435 77 279 
2906 100 31 32 413 
2907 3 23 152 351 
2908 416 30 4 153 
2909 22 3 152 284 
2910 15 2 150 217 
2911 4 29 354 153 
2912 103 35 36 408 
2913 6 283 480 72 
2914 481 65 5 216 
2915 8 483 352 85 
2916 5 92 481 417 
2917 482 286 7 78 
2918 480 219 6 71 
2919 345 27 26 94 
2920 14 13 196 149 
2921 24 25 99 348 
2922 68 477 198 67 
2923 212 70 479 69 
2924 692 105 129 102 
2925 692 129 105 517 
2926 694 466 518 570 
2927 647 494 577 566 
2928 647 577 494 539 
2929 569 473 457 522 
2930 569 457 473 427 
2931 633 522 192 585 
2932 633 192 522 592 
2933 708 575 680 504 
2934 708 680 575 537 
2935 653 494 528 533 
2936 653 528 494 519 
2937 672 616 532 510 
2938 672 532 616 544 
2939 616 672 568 510 
2940 568 672 616 497 
2941 635 588 701 448 
2942 635 701 588 507 
2943 477 681 428 453 
2944 428 681 477 565 
2945 206 628 565 225 
2946 565 628 206 521 
2947 651 545 560 489 
2948 651 560 545 548 
2949 673 495 652 536 
2950 673 652 495 557 
2951 593 682 612 118 
2952 612 682 593 511 
2953 582 304 326 302 
2954 582 326 304 540 
2955 653 655 551 489 
2956 551 655 653 519 
2957 692 277 263 235 
2958 692 263 277 517 
2959 545 659 695 493 
2960 545 695 659 642 
2961 543 695 659 493 
2962 543 659 695 642 
2963 694 474 466 431 
2964 694 466 474 518 
2965 601 138 530 111 
2966 601 530 138 574 
2967 705 437 439 458 
2968 705 439 437 654 
2969 404 166 573 365 
2970 573 166 404 188 
2971 670 257 252 561 
2972 670 252 257 233 
2973 658 633 183 215 
2974 658 183 633 515 
2975 626 124 96 123 
2976 626 96 124 583 
2977 433 470 702 475 
2978 433 702 470 678 
2979 521 702 470 475 
2980 521 470 702 678 
2981 624 280 253 591 
2982 624 253 280 270 
2983 651 666 545 489 
2984 545 666 651 527 
2985 133 699 134 146 
2986 134 699 133 601 
2987 539 640 647 374 
2988 539 647 640 531 
2989 372 647 640 374 
2990 372 640 647 531 
2991 423 279 541 435 
2992 541 279 423 226 
2993 307 707 305 334 
2994 305 707 307 645 
2995 361 461 90 411 
2996 90 461 361 425 
2997 257 658 670 200 
2998 257 670 658 561 
2999 222 670 658 200 
3000 222 658 670 561 
3001 428 198 67 165 
3002 428 67 198 477 
3003 600 289 698 568 
3004 600 698 289 268 
3005 702 450 475 605 
3006 702 475 450 487 
3007 661 186 534 174 
3008 661 534 186 644 
3009 658 252 239 257 
3010 658 239 252 619 
3011 639 360 137 410 
3012 639 137 360 612 
3013 605 484 702 450 
3014 605 702 484 576 
3015 613 486 709 572 
3016 613 709 486 451 
3017 661 190 523 185 
3018 661 523 190 617 
3019 625 93 567 595 
3020 625 567 93 106 
3021 608 246 510 290 
3022 608 510 246 597 
3023 250 510 246 290 
3024 250 246 510 597 
3025 432 279 582 260 
3026 432 582 279 435 
3027 541 582 279 260 
3028 541 279 582 435 
3029 98 197 11 147 
3030 11 197 98 163 
3031 28 669 101 136 
3032 101 669 28 343 
3033 671 378 382 415 
3034 671 382 378 586 
3035 685 313 677 350 
3036 685 677 313 590 
3037 691 30 368 416 
3038 691 368 30 142 
$EndElements
